{"glyphs":{"0":{"ha":630,"x_min":51,"x_max":579,"o":"m 475 0 l 155 0 q 51 211 51 0 l 51 707 q 155 821 51 821 l 475 821 q 579 707 579 821 l 579 205 q 475 0 579 0 m 360 747 l 274 747 q 233 622 233 747 l 233 171 q 274 74 233 74 l 360 74 q 397 171 397 74 l 397 622 q 360 747 397 747 z "},"1":{"ha":326,"x_min":51,"x_max":275,"o":"m 92 672 l 92 707 q 53 735 51 707 l 56 791 q 104 820 58 820 l 245 821 q 275 746 275 821 l 275 75 q 244 0 275 0 l 128 0 q 92 75 92 0 l 92 672 z "},"2":{"ha":631,"x_min":51,"x_max":580,"o":"m 203 582 l 86 582 q 51 656 51 582 l 51 700 q 161 821 51 821 l 480 821 q 580 707 580 821 l 580 298 q 524 211 580 211 l 264 211 q 234 164 234 211 l 234 134 q 264 78 234 78 l 549 78 q 580 52 580 78 l 580 29 q 549 0 580 0 l 137 0 q 51 119 51 0 l 51 257 q 137 386 51 386 l 353 386 q 397 448 397 386 l 397 684 q 358 743 397 743 l 273 743 q 233 690 233 743 l 233 656 q 203 582 233 582 z "},"3":{"ha":631,"x_min":51,"x_max":580,"o":"m 203 582 l 86 582 q 51 656 51 582 l 51 700 q 161 821 51 821 l 480 821 q 580 707 580 821 l 580 494 q 544 342 580 386 q 508 298 526 321 l 544 255 q 580 159 580 211 l 580 132 q 479 0 580 0 l 99 0 q 51 28 51 0 l 51 50 q 99 78 51 78 l 379 78 q 397 96 397 78 l 397 193 q 379 211 397 211 l 106 211 q 51 254 51 211 l 51 298 l 51 342 q 106 386 51 386 l 379 386 q 397 405 397 386 l 397 684 q 358 743 397 743 l 274 743 q 233 690 233 743 l 233 656 q 203 582 233 582 z "},"4":{"ha":631,"x_min":51,"x_max":580,"o":"m 580 746 l 580 75 q 545 0 580 0 l 429 0 q 398 75 398 0 l 398 160 q 364 211 398 211 l 86 211 q 51 286 51 211 l 51 746 q 86 821 51 821 l 203 821 q 233 746 233 821 l 233 434 q 267 386 233 386 l 364 386 q 398 434 398 386 l 398 746 q 429 821 398 821 l 545 821 q 580 746 580 821 z "},"5":{"ha":630,"x_min":51,"x_max":579,"o":"m 579 792 l 579 772 q 549 743 579 743 l 267 743 q 233 704 233 743 l 233 405 q 267 386 233 386 l 475 386 q 579 193 579 386 q 475 0 579 0 l 99 0 q 51 28 51 0 l 51 50 q 99 78 51 78 l 366 78 q 397 103 397 78 l 397 187 q 366 210 397 211 l 127 211 q 51 282 51 211 l 51 760 q 112 821 51 821 l 549 821 q 579 792 579 821 z "},"6":{"ha":631,"x_min":51,"x_max":580,"o":"m 549 583 l 431 583 q 397 657 397 583 l 397 681 q 358 743 397 743 l 275 743 q 233 684 235 743 l 233 448 q 268 386 233 386 l 494 386 q 580 193 580 386 q 494 0 580 0 l 159 0 q 51 182 51 0 l 51 700 q 159 821 51 821 l 494 821 q 580 700 580 821 l 580 657 q 549 583 580 583 m 273 211 q 233 174 233 211 l 233 104 q 273 78 233 78 l 357 78 q 397 104 397 78 l 397 174 q 357 211 397 211 l 273 211 z "},"7":{"ha":629,"x_min":51,"x_max":578,"o":"m 52 802 q 81 821 51 821 l 492 821 q 566 794 553 821 q 549 703 578 768 l 277 60 q 220 0 252 0 l 187 0 l 141 0 q 96 35 94 0 q 126 125 98 71 l 369 707 q 340 743 375 743 l 81 743 q 52 763 51 743 l 52 802 z "},"8":{"ha":630,"x_min":51,"x_max":579,"o":"m 396 821 q 543 764 506 821 q 579 614 579 707 l 579 471 q 514 317 579 386 q 579 185 579 248 q 567 87 579 122 q 489 0 555 53 l 140 0 q 62 87 74 53 q 51 185 51 122 q 120 317 51 248 q 51 471 51 386 l 51 614 q 96 772 51 723 q 222 821 140 821 l 396 821 m 267 743 q 233 681 233 743 l 233 448 q 267 386 233 386 l 356 386 q 397 448 397 386 l 397 681 q 356 743 397 743 l 267 743 m 233 174 l 233 104 q 272 78 233 78 l 357 78 q 397 104 397 78 l 397 174 q 357 211 397 211 l 271 211 q 233 174 233 211 z "},"9":{"ha":631,"x_min":51,"x_max":580,"o":"m 160 821 l 454 821 q 580 700 580 821 l 580 182 q 405 0 580 0 l 99 0 q 51 29 51 0 l 51 52 q 95 78 51 78 l 372 78 q 397 103 397 78 l 397 188 q 371 211 397 211 l 148 211 q 51 317 51 211 l 51 700 q 160 821 51 821 m 268 743 q 233 681 233 743 l 233 448 q 268 386 233 386 l 356 386 q 397 448 397 386 l 397 681 q 356 743 397 743 l 268 743 z "}," ":{"ha":386,"x_min":0,"x_max":0,"o":""},"!":{"ha":271,"x_min":44,"x_max":227,"o":"m 196 211 l 79 211 q 44 286 44 211 l 44 746 q 79 821 44 821 l 196 821 q 227 746 227 821 l 227 286 q 196 211 227 211 m 196 0 l 79 0 q 44 37 44 0 l 44 76 q 79 113 44 113 l 196 113 q 227 76 227 113 l 227 37 q 196 0 227 0 z "},"\"":{"ha":317,"x_min":44,"x_max":273,"o":"m 117 746 l 61 746 q 44 781 44 746 l 44 1000 q 61 1036 44 1036 l 117 1036 q 131 1000 131 1036 l 131 781 q 117 746 131 746 m 259 746 l 203 746 q 186 781 186 746 l 186 1001 q 203 1036 186 1036 l 259 1036 q 273 1001 273 1036 l 273 781 q 259 746 273 746 z "},"#":{"ha":1041,"x_min":44,"x_max":997,"o":"m 954 568 l 776 568 l 728 299 l 954 299 q 997 252 997 300 q 954 205 997 206 l 711 205 l 675 0 q 617 -32 669 -41 q 576 15 570 -24 l 610 205 l 350 206 l 313 0 q 255 -32 307 -41 q 215 15 209 -24 l 249 206 l 88 206 q 44 252 44 206 q 88 300 44 299 l 265 300 l 313 568 l 88 568 q 44 614 44 568 q 88 661 44 661 l 329 661 l 366 867 q 422 899 372 908 q 465 852 471 891 l 431 661 l 691 661 l 728 867 q 784 899 734 908 q 826 852 833 891 l 792 661 l 954 661 q 997 614 997 662 q 954 568 997 568 m 366 300 l 627 299 l 675 568 l 414 568 l 366 300 z "},"$":{"ha":617,"x_min":44,"x_max":573,"o":"m 267 -51 l 267 0 l 74 0 q 44 29 44 0 l 44 52 q 74 78 44 78 l 267 78 l 267 211 l 101 211 q 44 298 44 211 l 44 707 q 144 821 44 821 l 267 821 l 267 880 q 309 916 267 916 q 354 880 354 916 l 354 821 l 543 821 q 573 802 573 821 l 573 763 q 543 743 573 743 l 354 743 l 354 386 l 488 386 q 573 257 573 386 l 573 119 q 488 0 573 0 l 354 0 l 354 -51 q 309 -86 354 -86 q 267 -51 267 -86 m 227 681 l 227 448 q 267 386 227 389 l 267 743 q 227 681 227 743 m 360 78 q 391 130 391 78 l 391 164 q 360 211 391 211 l 354 211 l 354 78 l 360 78 z "},"%":{"ha":812,"x_min":44,"x_max":768,"o":"m 279 420 l 102 420 q 44 538 44 420 l 44 812 q 102 875 44 875 l 279 875 q 337 812 337 875 l 337 533 q 279 420 337 420 m 216 834 l 168 834 q 145 765 145 834 l 145 515 q 168 460 145 460 l 216 460 q 236 515 236 460 l 236 765 q 216 834 236 834 m 711 -34 l 534 -34 q 477 83 477 -34 l 477 357 q 534 420 477 420 l 711 420 q 768 357 768 420 l 768 79 q 711 -34 768 -34 m 648 380 l 600 380 q 578 311 578 380 l 578 60 q 600 7 578 7 l 648 7 q 668 60 668 7 l 668 311 q 648 380 668 380 m 134 -74 l 614 954 q 667 969 629 987 q 693 918 708 950 l 213 -111 q 158 -123 199 -142 q 134 -74 120 -106 z "},"&":{"ha":700,"x_min":44,"x_max":656,"o":"m 391 656 l 391 717 q 363 743 391 743 l 254 743 q 227 717 227 743 l 227 405 q 245 386 227 386 l 308 386 q 362 342 362 386 l 362 254 q 308 211 362 211 l 245 211 q 227 193 227 211 l 227 96 q 245 78 227 78 l 391 78 l 391 211 q 463 288 391 288 l 628 288 q 656 249 656 288 q 625 211 656 211 q 573 174 573 211 l 573 52 l 573 50 l 573 28 q 525 0 573 0 l 144 0 q 44 132 44 0 l 44 159 q 80 255 44 211 l 116 299 q 80 342 98 321 q 44 494 44 386 l 44 707 q 149 821 44 821 l 468 821 q 573 707 573 821 l 573 656 q 538 582 573 582 l 421 582 q 391 656 391 582 z "},"'":{"ha":175,"x_min":44,"x_max":131,"o":"m 89 747 q 44 782 44 747 l 44 1001 q 89 1037 44 1037 q 131 1001 131 1037 l 131 782 q 89 747 131 747 z "},"(":{"ha":391,"x_min":44,"x_max":359,"o":"m 359 -145 q 229 -77 292 -131 q 93 131 141 -3 q 44 412 44 264 q 94 694 44 559 q 231 903 143 830 q 359 970 294 955 l 359 912 q 316 878 337 898 q 205 680 245 808 q 166 412 166 551 q 205 144 166 272 q 315 -53 243 17 q 359 -90 336 -75 l 359 -145 z "},")":{"ha":448,"x_min":68,"x_max":383,"o":"m 68 -90 q 113 -53 91 -75 q 222 144 184 17 q 261 412 261 272 q 222 680 261 551 q 111 878 182 808 q 68 912 90 898 l 68 970 q 196 903 134 955 q 334 694 284 830 q 383 412 383 559 q 335 131 383 264 q 198 -77 286 -3 q 68 -145 135 -131 l 68 -90 z "},"*":{"ha":532,"x_min":44,"x_max":488,"o":"m 248 1012 l 288 1012 q 298 987 298 1012 l 290 851 q 295 849 292 850 l 393 943 q 419 951 413 959 l 445 920 q 433 895 453 911 l 327 816 q 331 802 330 809 l 463 787 q 486 773 488 783 l 479 734 q 452 726 477 722 l 323 758 q 317 749 320 753 l 391 638 q 395 611 404 616 l 360 591 q 337 607 350 585 l 277 727 q 267 726 272 726 q 254 727 260 726 l 195 607 q 172 591 182 585 l 137 611 q 141 638 128 616 l 216 751 q 212 758 214 754 l 80 726 q 53 734 55 722 l 46 773 q 69 787 44 783 l 203 803 q 207 814 205 808 l 98 895 q 87 920 79 911 l 113 951 q 138 943 119 959 l 237 848 q 244 851 241 850 l 236 987 q 248 1012 236 1012 z "},"+":{"ha":680,"x_min":44,"x_max":635,"o":"m 605 296 l 399 296 l 399 86 q 362 51 399 51 l 323 51 q 286 86 286 51 l 286 296 l 79 296 q 44 333 44 296 l 44 372 q 79 409 44 409 l 286 409 l 286 612 q 323 642 286 642 l 362 642 q 399 612 399 642 l 399 409 l 605 409 q 635 372 635 409 l 635 333 q 605 296 635 296 z "},",":{"ha":216,"x_min":17,"x_max":199,"o":"m 98 -135 l 60 -122 l 88 0 q 17 37 17 0 l 17 76 q 52 113 17 113 l 169 113 q 199 76 199 113 l 199 37 q 98 -135 199 0 z "},"-":{"ha":549,"x_min":44,"x_max":505,"o":"m 474 249 l 79 249 q 44 286 44 249 l 44 325 q 79 362 44 362 l 474 362 q 505 325 505 362 l 505 286 q 474 249 505 249 z "},".":{"ha":216,"x_min":17,"x_max":199,"o":"m 169 0 l 52 0 q 17 37 17 0 l 17 76 q 52 113 17 113 l 169 113 q 199 76 199 113 l 199 37 q 169 0 199 0 z "},"/":{"ha":582,"x_min":44,"x_max":538,"o":"m 56 -84 l 444 982 q 496 1001 456 1015 q 526 952 538 986 l 138 -114 q 83 -132 125 -147 q 56 -84 44 -117 z "},":":{"ha":216,"x_min":17,"x_max":199,"o":"m 169 0 l 52 0 q 17 37 17 0 l 17 76 q 52 113 17 113 l 169 113 q 199 76 199 113 l 199 37 q 169 0 199 0 m 169 454 l 52 454 q 17 492 17 454 l 17 530 q 52 568 17 568 l 169 568 q 199 530 199 568 l 199 492 q 169 454 199 454 z "},";":{"ha":216,"x_min":17,"x_max":199,"o":"m 169 454 l 52 454 q 17 492 17 454 l 17 530 q 52 568 17 568 l 169 568 q 199 530 199 568 l 199 492 q 169 454 199 454 m 98 -135 l 60 -122 l 88 0 q 17 37 17 0 l 17 76 q 52 113 17 113 l 169 113 q 199 76 199 113 l 199 37 q 98 -135 199 0 z "},"<":{"ha":688,"x_min":-40,"x_max":500,"o":"m 449 583 l 475 543 q 467 485 498 505 l 168 296 l 463 110 q 475 48 500 87 l 452 9 q 391 -5 427 -28 l 22 227 q -29 267 -19 253 q -40 296 -40 282 q -29 328 -40 313 q 22 366 -19 341 l 395 600 q 449 583 425 620 z "},"=":{"ha":494,"x_min":17,"x_max":477,"o":"m 447 378 l 52 378 q 17 415 17 378 l 17 454 q 52 491 17 491 l 447 491 q 477 454 477 491 l 477 415 q 447 378 477 378 m 447 120 l 52 120 q 17 157 17 120 l 17 196 q 52 233 17 233 l 447 233 q 477 196 477 233 l 477 157 q 447 120 477 120 z "},">":{"ha":688,"x_min":-40,"x_max":500,"o":"m 65 600 l 438 366 q 489 328 479 341 q 500 296 500 313 q 489 267 500 282 q 438 227 479 253 l 69 -5 q 8 9 33 -28 l -16 48 q -3 110 -40 87 l 292 296 l -7 485 q -15 543 -38 505 l 11 583 q 65 600 35 620 z "},"?":{"ha":562,"x_min":17,"x_max":545,"o":"m 280 211 l 163 211 q 128 286 128 211 l 128 392 q 163 461 131 461 l 334 461 q 361 488 361 461 l 361 703 q 334 743 361 743 l 227 743 q 199 659 199 743 q 157 610 199 610 l 68 610 q 17 715 17 610 q 43 784 17 747 q 121 821 68 821 l 440 821 q 545 707 545 821 l 545 467 q 440 353 545 353 l 321 353 q 311 340 311 353 l 311 286 q 280 211 311 211 m 280 0 l 163 0 q 128 37 128 0 l 128 76 q 163 113 128 113 l 280 113 q 311 76 311 113 l 311 37 q 280 0 311 0 z "},"@":{"ha":1316,"x_min":27,"x_max":1239,"o":"m 606 211 q 566 174 566 211 l 566 104 q 606 78 566 78 l 690 78 q 730 104 730 78 l 730 174 q 690 211 730 211 l 606 211 m 833 981 q 973 928 904 964 q 1164 743 1095 863 q 1234 492 1234 623 q 1166 243 1234 362 q 977 58 1099 124 q 890 20 935 35 q 817 0 833 1 l 469 0 q 383 193 383 0 q 469 386 383 386 l 695 386 q 730 448 730 386 l 730 542 q 688 601 728 601 l 605 601 q 566 538 566 601 l 566 515 q 532 440 566 440 l 414 440 q 383 515 383 440 l 383 557 q 469 678 383 678 l 804 678 q 912 557 912 678 l 912 182 q 908 118 912 146 q 934 131 921 124 q 1092 284 1036 186 q 1148 492 1148 383 q 1090 702 1148 602 q 931 856 1033 802 q 861 886 896 874 q 774 906 817 899 q 750 909 762 907 q 624 909 687 917 q 358 807 483 894 q 174 579 234 721 q 131 292 115 437 q 235 25 147 149 q 464 -156 323 -98 q 749 -198 604 -214 q 1017 -94 893 -182 q 1143 10 1122 -18 l 1239 11 q 1067 -162 1177 -84 q 758 -283 924 -264 q 430 -234 593 -302 q 166 -25 268 -167 q 46 283 65 117 q 96 614 27 450 q 308 877 165 777 q 614 996 452 977 q 833 981 723 1008 z "},"A":{"ha":631,"x_min":51,"x_max":580,"o":"m 397 75 l 397 130 q 356 211 397 211 l 274 211 q 233 132 233 211 l 233 75 q 191 0 233 0 l 94 0 q 51 75 51 0 l 51 662 q 155 821 51 821 l 476 821 q 580 662 580 821 l 580 75 q 536 0 580 0 l 445 0 q 397 75 397 0 m 356 743 l 274 743 q 233 618 233 743 l 233 483 q 274 386 233 386 l 356 386 q 397 483 397 386 l 397 618 q 356 743 397 743 z "},"B":{"ha":631,"x_min":51,"x_max":580,"o":"m 85 821 l 475 821 q 579 662 580 821 l 579 517 q 561 363 579 385 q 506 298 543 341 q 561 232 543 254 q 579 157 579 210 l 579 119 q 475 0 579 0 l 85 0 q 51 75 51 0 l 51 746 q 85 821 51 821 m 358 743 l 260 743 q 233 701 233 743 l 233 434 q 260 386 233 386 l 358 386 q 397 434 397 386 l 397 618 q 358 743 397 743 m 358 211 l 260 211 q 233 165 233 211 l 233 113 q 260 79 233 79 l 358 79 q 397 113 397 79 l 397 165 q 358 211 397 211 z "},"C":{"ha":630,"x_min":51,"x_max":579,"o":"m 549 582 l 432 582 q 397 656 397 582 q 358 743 397 743 l 274 743 q 233 620 233 743 l 233 203 q 274 78 233 78 l 358 78 q 397 164 397 78 q 432 239 397 239 l 549 239 q 579 164 579 239 l 579 119 q 475 0 579 0 l 156 0 q 51 115 51 0 l 51 707 q 156 821 51 821 l 475 821 q 579 701 579 821 l 579 656 q 549 582 579 582 z "},"D":{"ha":630,"x_min":51,"x_max":579,"o":"m 85 821 l 475 821 q 579 662 579 821 l 579 158 q 475 0 579 0 l 85 0 q 51 74 51 0 l 51 746 q 85 821 51 821 m 360 743 l 260 743 q 233 700 233 743 l 233 123 q 260 79 233 79 l 360 79 q 397 204 397 79 l 397 616 q 360 743 397 743 z "},"E":{"ha":630,"x_min":51,"x_max":579,"o":"m 85 821 l 550 821 q 579 802 579 821 l 579 762 q 550 743 579 743 l 274 743 q 233 705 233 743 l 233 406 q 274 385 233 385 l 429 385 q 475 342 475 385 l 475 254 q 429 210 475 210 l 274 210 q 233 190 233 210 l 233 98 q 274 78 233 78 l 550 78 q 579 50 579 78 l 579 28 q 550 0 579 0 l 155 0 q 51 115 51 0 l 51 746 q 85 821 51 821 z "},"F":{"ha":630,"x_min":51,"x_max":579,"o":"m 579 802 l 579 762 q 550 743 579 743 l 274 743 q 233 705 233 743 l 233 406 q 274 385 233 385 l 429 385 q 475 342 475 385 l 475 254 q 429 210 475 210 l 274 210 q 233 190 233 210 l 233 75 q 175 0 233 0 l 105 0 q 51 75 51 0 l 51 707 q 155 821 51 821 l 550 821 q 579 802 579 821 z "},"G":{"ha":630,"x_min":51,"x_max":579,"o":"m 292 241 l 292 351 q 366 386 292 386 l 507 386 q 579 289 579 386 l 579 135 q 475 0 579 0 l 105 0 q 51 115 51 0 l 51 707 q 155 821 51 821 l 475 821 q 579 747 579 821 l 579 656 q 549 582 579 582 l 433 582 q 397 659 397 582 q 360 743 397 743 l 274 743 q 233 582 233 743 l 233 212 q 274 78 233 78 l 360 78 q 397 142 397 78 l 397 190 q 371 211 397 211 l 353 211 q 333 213 342 211 q 292 241 292 218 z "},"H":{"ha":630,"x_min":51,"x_max":579,"o":"m 579 746 l 579 75 q 543 0 579 0 l 427 0 q 397 75 397 0 l 397 160 q 358 211 397 211 l 274 211 q 233 160 233 211 l 233 75 q 203 0 233 0 l 87 0 q 51 75 51 0 l 51 746 q 87 821 51 821 l 203 821 q 233 746 233 821 l 233 434 q 274 386 233 386 l 358 386 q 397 434 397 386 l 397 746 q 427 821 397 821 l 543 821 q 579 746 579 821 z "},"I":{"ha":284,"x_min":51,"x_max":233,"o":"m 51 75 l 51 746 q 87 821 51 821 l 198 821 q 233 746 233 821 l 233 75 q 198 0 233 0 l 87 0 q 51 75 51 0 z "},"J":{"ha":630,"x_min":51,"x_max":579,"o":"m 579 746 l 579 71 q 513 0 579 0 l 109 0 q 51 75 51 0 l 51 224 q 97 298 51 298 l 188 298 q 233 252 233 298 l 233 124 q 274 78 233 78 l 358 78 q 397 122 397 78 l 397 746 q 432 821 397 821 l 543 821 q 579 746 579 821 z "},"K":{"ha":631,"x_min":51,"x_max":581,"o":"m 568 387 q 534 323 557 351 q 506 298 521 308 q 533 272 520 288 q 568 209 557 244 q 570 203 569 206 q 576 174 574 189 q 579 142 579 158 l 579 74 q 543 0 579 0 l 427 0 q 397 74 397 0 l 397 161 q 358 211 397 211 l 274 211 q 233 161 233 211 l 233 74 q 203 0 233 0 l 87 0 q 51 74 51 0 l 51 746 q 87 821 51 821 l 203 821 q 233 746 233 821 l 233 435 q 274 386 233 386 l 358 386 q 397 435 397 386 l 397 746 q 427 821 397 821 l 543 821 q 579 746 579 821 l 579 494 q 568 387 581 422 z "},"L":{"ha":630,"x_min":51,"x_max":579,"o":"m 87 821 l 203 821 q 233 746 233 821 l 233 111 q 266 78 233 78 l 549 78 q 579 58 579 78 l 579 18 q 549 0 579 0 l 117 0 q 51 70 51 0 l 51 746 q 87 821 51 821 z "},"M":{"ha":863,"x_min":51,"x_max":812,"o":"m 51 821 l 683 821 q 812 708 812 821 l 812 74 q 786 1 812 1 l 669 1 q 629 74 629 1 l 629 704 q 524 743 629 743 l 524 74 q 492 1 524 1 l 376 1 q 341 74 341 1 l 341 704 q 233 743 341 743 l 233 74 q 202 0 233 1 l 85 0 q 51 74 51 1 l 51 821 z "},"N":{"ha":631,"x_min":51,"x_max":581,"o":"m 580 746 l 580 74 q 545 0 580 0 l 427 0 q 387 26 397 0 l 244 361 q 234 361 234 386 l 233 74 q 203 0 234 0 l 86 0 q 51 74 52 0 l 51 746 q 86 821 52 821 l 203 821 q 244 802 233 821 l 377 555 q 397 555 397 517 l 397 746 q 425 821 397 821 l 557 821 q 580 746 581 821 z "},"O":{"ha":631,"x_min":51,"x_max":580,"o":"m 475 0 l 155 0 q 51 211 51 0 l 51 662 q 155 821 51 821 l 475 821 q 580 662 580 821 l 580 211 q 475 0 580 0 m 233 618 l 233 175 q 274 78 233 78 l 358 78 q 397 175 397 78 l 397 618 q 358 743 397 743 l 274 743 q 233 618 233 743 z "},"P":{"ha":631,"x_min":51,"x_max":580,"o":"m 85 821 l 475 821 q 580 662 580 821 l 580 386 q 475 298 580 298 l 267 298 q 233 263 233 298 l 233 74 q 203 0 233 0 l 86 0 q 51 74 52 0 l 51 746 q 85 821 52 821 m 397 434 l 397 696 q 358 743 397 743 l 271 743 q 233 691 233 743 l 233 434 q 273 386 233 386 l 358 386 q 397 434 397 386 z "},"Q":{"ha":663,"x_min":51,"x_max":612,"o":"m 487 0 l 608 -184 q 612 -196 612 -190 q 609 -206 612 -201 q 601 -214 606 -211 q 591 -217 595 -217 l 295 -217 q 273 -190 273 -217 q 272 0 271 -112 l 155 0 q 51 210 51 0 l 51 662 q 155 821 51 821 l 475 821 q 579 662 579 821 l 579 204 q 487 0 579 12 m 359 743 l 274 743 q 233 618 233 743 l 233 174 q 274 77 233 77 q 277 195 275 161 q 292 210 277 210 l 325 210 q 349 199 339 210 l 394 132 q 397 174 396 149 l 397 618 q 359 743 397 743 z "},"R":{"ha":632,"x_min":51,"x_max":581,"o":"m 569 387 q 534 324 557 352 q 507 298 522 309 q 534 273 521 288 q 569 210 557 245 q 571 203 570 207 q 577 175 575 190 q 580 142 580 159 l 580 74 q 545 0 580 0 l 428 0 q 397 74 397 1 l 397 198 q 356 211 397 211 l 239 211 q 233 198 233 211 l 233 74 q 203 0 233 0 l 87 0 q 51 74 51 0 l 51 747 q 87 821 51 821 l 475 821 q 580 662 580 821 l 580 494 q 569 387 581 422 m 239 743 q 233 738 233 743 l 233 391 q 239 386 233 386 l 358 386 q 397 434 397 386 l 397 704 q 358 743 397 743 l 239 743 z "},"S":{"ha":631,"x_min":51,"x_max":580,"o":"m 549 582 l 433 582 q 397 656 397 582 l 397 681 q 358 743 397 743 l 274 743 q 233 681 233 743 l 233 448 q 278 386 233 386 l 494 386 q 580 257 580 386 l 580 119 q 494 0 580 0 l 81 0 q 51 29 51 0 l 51 52 q 81 78 51 78 l 367 78 q 397 130 397 78 l 397 164 q 367 211 397 211 l 108 211 q 51 298 51 211 l 51 707 q 151 821 51 821 l 471 821 q 580 700 580 821 l 580 656 q 549 582 580 582 z "},"T":{"ha":463,"x_min":51,"x_max":412,"o":"m 94 821 l 370 821 q 412 801 412 821 l 412 763 q 370 743 412 743 l 350 743 q 323 709 323 743 l 323 74 q 276 0 323 0 l 187 0 q 140 74 140 0 l 140 709 q 120 744 140 743 l 94 743 q 51 763 51 743 l 51 801 q 94 821 51 821 z "},"U":{"ha":631,"x_min":51,"x_max":580,"o":"m 87 821 l 203 821 q 233 746 233 821 l 233 175 q 274 78 233 78 l 356 78 q 397 175 397 78 l 397 746 q 428 821 397 821 l 544 821 q 579 746 580 821 l 580 211 q 469 0 580 0 l 162 0 q 51 211 52 0 l 51 746 q 87 821 52 821 z "},"V":{"ha":630,"x_min":51,"x_max":579,"o":"m 319 445 l 392 797 q 420 821 397 821 l 543 821 q 563 747 579 821 l 402 26 q 356 0 397 0 l 274 0 q 228 26 233 0 l 67 747 q 87 821 51 821 l 210 821 q 239 797 233 821 l 319 445 z "},"W":{"ha":863,"x_min":51,"x_max":812,"o":"m 812 0 l 180 0 q 51 113 51 0 l 51 747 q 77 821 51 821 l 194 821 q 233 747 233 821 l 233 117 q 339 77 233 77 l 339 747 q 370 821 339 821 l 486 821 q 522 747 522 821 l 522 117 q 629 77 522 77 l 629 747 q 661 821 629 821 l 777 821 q 812 747 812 821 l 812 0 z "},"X":{"ha":631,"x_min":51,"x_max":580,"o":"m 203 821 q 233 746 233 821 l 233 435 q 273 386 233 387 l 357 387 q 397 435 397 387 l 397 746 q 428 821 397 821 l 544 821 q 580 746 580 821 l 580 518 q 562 365 580 387 q 507 299 543 342 q 562 233 543 255 q 580 159 580 212 l 580 75 q 544 0 580 0 l 428 0 q 397 75 397 0 l 397 166 q 357 212 397 212 l 273 212 q 233 166 233 212 l 233 75 q 203 0 233 0 l 87 0 q 51 75 51 0 l 51 159 q 70 233 51 212 q 125 299 88 255 q 70 365 88 342 q 51 518 51 389 l 51 746 q 87 821 51 821 l 203 821 z "},"Y":{"ha":631,"x_min":51,"x_max":580,"o":"m 87 821 l 203 821 q 233 746 233 821 l 233 434 q 274 386 233 386 l 357 386 q 397 434 397 386 l 397 746 q 428 821 397 821 l 544 821 q 580 746 580 821 l 580 182 q 398 0 580 0 l 82 0 q 51 29 51 0 l 51 52 q 82 78 51 78 l 371 78 q 397 103 397 78 l 397 160 q 371 211 397 211 l 148 211 q 51 299 51 211 l 51 746 q 87 821 51 821 z "},"Z":{"ha":630,"x_min":51,"x_max":579,"o":"m 525 821 q 551 814 538 821 q 572 794 564 807 q 579 767 579 781 q 576 748 579 757 q 556 703 571 729 l 236 78 l 549 78 q 579 57 579 78 l 579 18 q 549 0 579 0 l 109 0 l 105 0 q 78 7 91 0 q 58 27 65 14 q 51 54 51 39 q 58 79 51 67 q 78 124 64 98 l 376 707 q 348 743 382 743 l 81 743 q 51 762 51 743 l 51 802 q 81 821 51 821 l 524 821 l 525 821 z "},"[":{"ha":312,"x_min":17,"x_max":295,"o":"m 138 -40 q 171 -73 138 -73 l 272 -73 q 294 -111 294 -73 q 272 -146 294 -146 l 83 -146 q 17 -77 17 -146 l 17 894 q 83 964 17 964 l 272 964 q 295 928 295 964 q 272 890 295 890 l 172 890 q 139 857 139 890 l 138 -40 z "},"\\":{"ha":582,"x_min":44,"x_max":538,"o":"m 498 -132 q 444 -114 456 -147 l 56 952 q 86 1001 44 986 q 138 982 125 1015 l 526 -84 q 498 -132 538 -117 z "},"]":{"ha":312,"x_min":17,"x_max":295,"o":"m 173 857 q 140 890 173 890 l 40 890 q 17 928 17 890 q 40 964 17 964 l 229 964 q 295 894 295 964 l 295 -77 q 229 -146 295 -146 l 40 -146 q 18 -111 18 -146 q 40 -73 18 -73 l 141 -73 q 174 -40 174 -73 l 173 857 z "},"^":{"ha":739,"x_min":44,"x_max":695,"o":"m 348 1227 q 369 1236 358 1236 q 391 1227 381 1236 l 670 948 q 669 897 695 923 l 641 869 q 590 868 615 843 l 369 1088 l 149 868 q 98 869 124 843 l 71 897 q 69 948 44 923 l 348 1227 z "},"_":{"ha":1179,"x_min":44,"x_max":1135,"o":"m 1105 -199 l 79 -199 q 44 -161 44 -199 l 44 -123 q 79 -85 44 -85 l 1105 -85 q 1135 -123 1135 -85 l 1135 -161 q 1105 -199 1135 -199 z "},"`":{"ha":327,"x_min":17,"x_max":310,"o":"m 235 890 l 47 1003 q 39 1058 17 1021 q 92 1078 62 1096 l 280 964 q 287 908 310 947 q 235 890 265 872 z "},"a":{"ha":631,"x_min":51,"x_max":580,"o":"m 51 515 l 51 559 q 136 680 51 680 l 472 680 q 580 559 580 680 l 580 182 q 472 0 580 0 l 137 0 q 51 193 51 0 q 136 386 51 386 l 363 386 q 397 448 397 386 l 397 542 q 355 601 396 601 l 273 601 q 233 538 233 601 l 233 515 q 199 440 233 440 l 81 440 q 51 515 51 440 m 273 211 q 233 174 233 211 l 233 104 q 273 78 233 78 l 357 78 q 397 104 397 78 l 397 174 q 358 211 397 211 l 273 211 z "},"b":{"ha":631,"x_min":51,"x_max":580,"o":"m 233 740 l 233 680 l 476 680 q 580 521 580 680 l 580 211 q 476 0 580 0 l 156 0 q 144 1 150 0 l 81 1 q 51 71 51 1 l 51 740 q 81 814 51 814 l 197 814 q 233 740 233 814 m 357 602 l 273 602 q 234 477 234 602 l 234 175 q 273 78 234 78 l 357 78 q 398 175 398 78 l 398 477 q 357 602 398 602 z "},"c":{"ha":630,"x_min":51,"x_max":580,"o":"m 549 441 l 432 441 q 397 515 397 441 q 358 602 397 602 l 274 602 q 233 479 233 602 l 233 203 q 274 78 233 78 l 358 78 q 397 164 397 78 q 432 239 397 239 l 549 239 q 580 164 580 239 l 580 119 q 476 0 580 0 l 156 0 q 51 114 51 0 l 51 566 q 156 680 51 680 l 476 680 q 580 560 580 680 l 580 515 q 549 441 580 441 z "},"d":{"ha":631,"x_min":51,"x_max":580,"o":"m 433 814 l 550 814 q 580 739 580 814 l 580 205 q 475 0 580 0 l 155 0 q 51 211 51 0 l 51 521 q 155 680 51 680 l 397 680 l 397 739 q 433 814 397 814 m 233 477 l 233 175 q 274 78 233 78 l 358 78 q 397 165 395 78 l 397 490 q 358 602 395 602 l 274 602 q 233 477 233 602 z "},"e":{"ha":630,"x_min":51,"x_max":580,"o":"m 545 292 l 428 292 l 426 292 l 233 292 l 233 203 q 274 78 233 78 l 358 78 q 397 164 397 78 q 432 239 397 239 l 549 239 q 580 164 580 239 l 580 119 q 476 0 580 0 l 156 0 q 51 114 51 0 l 51 566 q 156 680 51 680 l 476 680 q 580 560 580 680 l 580 367 q 545 292 580 292 m 358 603 l 274 603 q 233 479 233 603 l 233 382 l 393 382 q 358 603 396 603 z "},"f":{"ha":467,"x_min":51,"x_max":416,"o":"m 117 549 q 141 589 141 549 l 141 709 q 245 823 141 823 l 387 823 q 416 804 416 823 l 416 764 q 387 745 416 745 l 364 745 q 323 707 323 745 l 323 589 q 347 549 323 549 l 370 549 q 412 529 412 549 l 412 491 q 370 471 412 471 l 350 471 q 323 448 328 471 l 323 75 q 294 3 323 3 l 177 3 q 141 75 141 3 l 141 431 l 140 431 q 120 471 140 471 l 94 471 q 51 491 51 471 l 51 529 q 94 549 51 549 l 117 549 z "},"g":{"ha":631,"x_min":51,"x_max":580,"o":"m 358 386 q 397 448 397 386 l 397 540 q 358 602 397 602 l 274 602 q 233 540 233 602 l 233 448 q 278 386 233 386 l 358 386 m 580 119 q 494 0 580 0 l 81 0 q 51 29 51 0 l 51 52 q 81 78 51 78 l 367 78 q 397 130 397 78 l 397 164 q 367 211 397 211 l 108 211 q 51 298 51 211 l 51 566 q 151 680 51 680 l 471 680 q 580 559 580 680 l 580 119 z "},"h":{"ha":630,"x_min":51,"x_max":579,"o":"m 579 560 l 579 75 q 543 0 579 0 l 427 0 q 397 75 397 0 l 397 547 q 358 597 397 597 l 274 597 q 233 547 233 597 l 233 75 q 203 0 233 0 l 87 0 q 51 75 51 0 l 51 746 q 87 821 51 821 l 203 821 q 233 746 233 821 l 233 728 q 274 680 233 680 l 476 680 q 579 560 579 680 z "},"i":{"ha":284,"x_min":51,"x_max":233,"o":"m 51 75 l 51 605 q 87 680 51 680 l 198 680 q 233 605 233 680 l 233 75 q 198 0 233 0 l 87 0 q 51 75 51 0 m 203 707 l 86 707 q 51 745 51 707 l 51 783 q 86 821 51 821 l 203 821 q 233 783 233 821 l 233 745 q 203 707 233 707 z "},"j":{"ha":631,"x_min":51,"x_max":579,"o":"m 579 73 q 509 0 579 0 l 155 0 q 51 121 51 0 l 51 166 q 81 240 51 240 l 198 240 q 233 166 233 240 q 272 80 233 80 l 356 80 q 397 205 397 80 l 397 204 l 397 605 q 432 680 397 680 l 543 680 q 579 605 579 680 l 579 73 m 549 707 l 433 707 q 397 745 397 707 l 397 783 q 433 821 397 821 l 549 821 q 579 783 579 821 l 579 745 q 549 707 579 707 z "},"k":{"ha":631,"x_min":51,"x_max":581,"o":"m 568 387 q 534 323 557 351 q 506 298 521 308 q 533 272 520 288 q 568 209 557 244 q 570 203 569 206 q 576 174 574 189 q 579 142 579 158 l 579 74 q 543 0 579 0 l 427 0 q 397 74 397 0 l 397 161 q 358 211 397 211 l 274 211 q 233 161 233 211 l 233 74 q 203 0 233 0 l 87 0 q 51 74 51 0 l 51 746 q 87 821 51 821 l 203 821 q 233 746 233 821 l 233 435 q 274 386 233 386 l 358 386 q 397 435 397 386 l 397 605 q 427 680 397 680 l 543 680 q 579 605 579 680 l 579 494 q 568 387 581 422 z "},"l":{"ha":284,"x_min":51,"x_max":233,"o":"m 87 821 l 203 821 q 233 746 233 821 l 233 70 q 203 0 233 0 l 87 0 q 51 70 51 0 l 51 746 q 87 821 51 821 z "},"m":{"ha":863,"x_min":51,"x_max":812,"o":"m 51 680 l 683 680 q 812 567 812 680 l 812 74 q 786 1 812 1 l 669 1 q 629 74 629 1 l 629 563 q 524 602 629 602 l 524 74 q 492 1 524 1 l 376 1 q 341 74 341 1 l 341 563 q 233 602 341 602 l 233 74 q 202 0 233 1 l 85 0 q 51 74 51 1 l 51 680 z "},"n":{"ha":631,"x_min":51,"x_max":580,"o":"m 233 602 l 233 74 q 233 57 233 64 q 229 32 232 42 q 229 29 229 31 q 202 0 221 1 l 85 0 q 51 66 52 1 l 51 680 l 451 680 q 580 567 580 680 l 580 74 q 554 1 580 1 l 437 1 q 397 74 397 1 l 397 563 q 233 602 397 602 z "},"o":{"ha":631,"x_min":51,"x_max":580,"o":"m 475 0 l 155 0 q 51 211 51 0 l 51 521 q 155 680 51 680 l 475 680 q 580 521 580 680 l 580 205 q 475 0 580 0 m 233 477 l 233 175 q 274 78 233 78 l 358 78 q 397 175 397 78 l 397 477 q 358 602 397 602 l 274 602 q 233 477 233 602 z "},"p":{"ha":631,"x_min":51,"x_max":580,"o":"m 87 680 l 475 680 q 580 521 580 680 l 580 298 q 475 211 580 211 l 267 211 q 233 176 233 211 l 233 74 q 203 0 233 0 l 87 0 q 52 74 52 0 l 51 605 q 87 680 52 680 m 397 427 l 397 553 q 358 600 397 600 l 271 600 q 233 548 233 600 l 233 427 q 273 378 233 378 l 358 378 q 397 427 397 378 z "},"q":{"ha":631,"x_min":51,"x_max":580,"o":"m 475 0 l 401 0 l 452 -189 q 456 -200 456 -194 q 453 -210 456 -205 q 445 -218 450 -215 q 435 -221 439 -221 l 295 -221 q 273 -194 273 -221 q 272 0 271 -122 l 155 0 q 51 211 51 0 l 51 521 q 155 680 51 680 l 475 680 q 580 521 580 680 l 580 205 q 475 0 580 0 m 233 477 l 233 175 q 273 78 233 79 q 277 191 275 165 q 292 206 277 206 l 325 206 q 349 195 339 206 l 378 87 q 397 175 397 107 l 397 477 q 358 602 397 602 l 274 602 q 233 477 233 602 z "},"r":{"ha":572,"x_min":51,"x_max":522,"o":"m 233 602 l 233 74 l 233 66 q 233 57 233 62 q 202 0 229 1 l 85 0 q 51 66 52 1 l 51 74 l 51 680 l 393 680 q 522 567 522 680 l 522 515 q 496 441 522 441 l 378 441 q 339 515 339 441 l 339 563 q 243 602 339 600 l 233 602 z "},"s":{"ha":631,"x_min":51,"x_max":580,"o":"m 549 441 l 433 441 q 397 515 397 441 l 397 540 q 358 602 397 602 l 274 602 q 233 540 233 602 l 233 448 q 278 386 233 386 l 494 386 q 580 257 580 386 l 580 119 q 494 0 580 0 l 81 0 q 51 29 51 0 l 51 52 q 81 78 51 78 l 367 78 q 397 130 397 78 l 397 164 q 367 211 397 211 l 108 211 q 51 298 51 211 l 51 566 q 151 680 51 680 l 471 680 q 580 559 580 680 l 580 515 q 549 441 580 441 z "},"t":{"ha":463,"x_min":51,"x_max":412,"o":"m 177 821 l 294 821 q 323 746 323 821 l 323 656 l 323 611 q 347 566 323 566 l 370 566 q 412 547 412 566 l 412 509 q 370 489 412 489 l 350 489 q 323 466 328 489 l 323 70 q 294 0 323 0 l 177 0 q 141 70 141 0 l 141 448 l 140 448 q 120 489 140 489 l 94 489 q 51 509 51 489 l 51 547 q 94 566 51 566 l 117 566 q 140 611 140 566 l 141 656 l 141 746 q 177 821 141 821 z "},"u":{"ha":631,"x_min":51,"x_max":580,"o":"m 86 680 l 202 680 q 233 605 233 680 l 233 175 q 274 78 233 78 l 356 78 q 397 175 397 78 l 397 605 q 427 680 397 680 l 543 680 q 580 605 580 680 l 580 211 q 469 0 580 0 l 162 0 q 51 211 51 0 l 51 605 q 86 680 51 680 z "},"v":{"ha":630,"x_min":51,"x_max":579,"o":"m 315 304 l 392 656 q 420 680 397 680 l 543 680 q 563 606 579 680 l 403 26 q 357 0 397 0 l 315 0 l 275 0 q 229 26 234 0 l 67 606 q 87 680 51 680 l 210 680 q 239 656 233 680 l 315 304 z "},"w":{"ha":863,"x_min":51,"x_max":812,"o":"m 812 0 l 180 0 q 51 113 51 0 l 51 606 q 77 680 51 680 l 194 680 q 233 606 233 680 l 233 117 q 339 77 233 77 l 339 606 q 370 680 339 680 l 486 680 q 522 606 522 680 l 522 117 q 629 77 522 77 l 629 606 q 661 680 629 680 l 777 680 q 812 606 812 680 l 812 0 z "},"x":{"ha":631,"x_min":51,"x_max":580,"o":"m 203 680 q 233 605 233 680 l 233 435 q 273 386 233 387 l 357 387 q 397 435 397 387 l 397 605 q 428 680 397 680 l 544 680 q 580 605 580 680 l 580 518 q 562 365 580 387 q 507 299 543 342 q 562 233 543 255 q 580 159 580 212 l 580 75 q 544 0 580 0 l 428 0 q 397 75 397 0 l 397 166 q 357 212 397 212 l 273 212 q 233 166 233 212 l 233 75 q 203 0 233 0 l 87 0 q 51 75 51 0 l 51 159 q 70 233 51 212 q 125 299 88 255 q 70 365 88 342 q 51 518 51 389 l 51 605 q 87 680 51 680 l 203 680 z "},"y":{"ha":631,"x_min":51,"x_max":580,"o":"m 87 680 l 203 680 q 233 605 233 680 l 233 434 q 274 386 233 386 l 357 386 q 397 434 397 386 l 397 605 q 428 680 397 680 l 544 680 q 580 605 580 680 l 580 182 q 398 0 580 0 l 82 0 q 51 29 51 0 l 51 52 q 82 78 51 78 l 371 78 q 397 103 397 78 l 397 160 q 371 211 397 211 l 148 211 q 51 298 51 211 l 51 605 q 87 680 51 680 z "},"z":{"ha":668,"x_min":51,"x_max":617,"o":"m 563 680 q 589 673 576 680 q 610 653 602 666 q 617 626 617 640 q 614 607 617 616 q 594 562 609 588 l 274 78 l 587 78 q 617 57 617 78 l 617 18 q 587 0 617 0 l 109 0 l 105 0 q 78 7 91 0 q 58 27 65 14 q 51 54 51 39 q 58 79 51 67 q 78 124 64 98 l 376 566 q 348 602 382 602 l 81 602 q 51 621 51 602 l 51 661 q 81 680 51 680 l 562 680 l 563 680 z "},"{":{"ha":407,"x_min":17,"x_max":390,"o":"m 233 -30 q 266 -62 233 -62 l 367 -62 q 389 -100 389 -62 q 367 -136 389 -136 l 178 -136 q 112 -66 112 -136 q 88 282 112 240 q 17 410 64 325 q 88 538 64 496 q 112 887 112 581 q 178 957 112 957 l 367 957 q 390 921 390 957 q 367 883 390 883 l 267 883 q 234 850 234 883 q 210 525 234 563 q 139 410 186 486 q 210 296 186 334 q 233 -30 233 258 z "},"|":{"ha":121,"x_min":17,"x_max":104,"o":"m 60 -53 q 17 -18 17 -53 l 17 1001 q 60 1037 17 1037 q 104 1001 104 1037 l 104 -18 q 60 -53 104 -53 z "},"}":{"ha":545,"x_min":85,"x_max":458,"o":"m 336 410 q 265 525 289 486 q 241 850 241 563 q 209 883 241 883 l 109 883 q 85 921 85 883 q 109 957 85 957 l 297 957 q 363 887 363 957 q 387 538 363 581 q 458 410 411 496 q 387 282 411 325 q 363 -66 363 240 q 298 -136 363 -136 l 109 -136 q 86 -100 86 -136 q 109 -62 86 -62 l 210 -62 q 242 -30 242 -62 q 266 296 242 258 q 336 410 290 334 z "},"~":{"ha":616,"x_min":27,"x_max":589,"o":"m 399 369 q 496 377 455 362 q 559 416 537 392 q 585 380 581 441 q 560 294 589 319 q 492 257 530 270 q 403 251 454 244 q 294 284 352 258 q 217 304 254 300 q 121 297 162 312 q 57 257 79 281 q 31 294 35 233 q 57 379 27 355 q 124 417 86 404 q 213 423 162 430 q 322 389 264 416 q 399 369 363 374 z "},"Ä":{"ha":631,"x_min":51,"x_max":580,"o":"m 397 75 l 397 130 q 356 211 397 211 l 274 211 q 233 132 233 211 l 233 75 q 191 0 233 0 l 94 0 q 51 75 51 0 l 51 662 q 155 821 51 821 l 476 821 q 580 662 580 821 l 580 75 q 536 0 580 0 l 445 0 q 397 75 397 0 m 356 743 l 274 743 q 233 618 233 743 l 233 483 q 274 386 233 386 l 356 386 q 397 483 397 386 l 397 618 q 356 743 397 743 m 225 884 l 156 884 q 121 922 121 884 l 121 960 q 156 998 121 998 l 225 998 q 256 960 256 998 l 256 922 q 225 884 256 884 m 479 884 l 410 884 q 374 922 374 884 l 374 960 q 410 998 374 998 l 479 998 q 509 960 509 998 l 509 922 q 479 884 509 884 z "},"Å":{"ha":631,"x_min":51,"x_max":580,"o":"m 397 75 l 397 130 q 356 211 397 211 l 274 211 q 233 132 233 211 l 233 75 q 191 0 233 0 l 94 0 q 51 75 51 0 l 51 662 q 155 821 51 821 l 476 821 q 580 662 580 821 l 580 75 q 536 0 580 0 l 445 0 q 397 75 397 0 m 356 743 l 274 743 q 233 618 233 743 l 233 483 q 274 386 233 386 l 356 386 q 397 483 397 386 l 397 618 q 356 743 397 743 m 315 1019 q 364 1006 340 1019 q 401 970 388 994 q 415 920 415 946 q 402 870 415 894 q 365 834 389 847 q 315 821 342 821 q 266 834 290 821 q 230 870 243 847 q 216 920 216 894 q 230 970 216 946 q 267 1006 243 994 q 315 1019 290 1019 m 244 920 q 254 884 244 901 q 280 858 263 867 q 315 848 297 848 q 351 858 334 848 q 378 884 368 867 q 387 920 387 901 q 378 956 387 939 q 351 982 368 973 q 315 991 334 991 q 280 982 298 991 q 254 956 263 973 q 244 920 244 939 z "},"Ç":{"ha":630,"x_min":51,"x_max":579,"o":"m 347 0 l 347 -41 q 393 -51 370 -43 q 441 -80 424 -61 q 458 -119 458 -99 q 446 -153 458 -137 q 444 -155 445 -154 q 441 -159 443 -157 q 437 -163 439 -161 q 391 -191 420 -181 q 330 -199 363 -200 q 271 -189 299 -198 q 229 -147 229 -176 q 327 -156 283 -161 q 371 -126 371 -151 q 300 -100 371 -102 q 229 -61 229 -98 l 229 0 l 156 0 q 51 114 51 0 l 51 707 q 156 821 51 821 l 475 821 q 579 701 579 821 l 579 656 q 549 582 579 582 l 432 582 q 397 656 397 582 q 358 743 397 743 l 274 743 q 233 620 233 743 l 233 203 q 274 78 233 78 l 358 78 q 397 164 397 78 q 432 239 397 239 l 549 239 q 579 164 579 239 l 579 119 q 475 0 579 0 l 347 0 z "},"É":{"ha":630,"x_min":51,"x_max":579,"o":"m 85 821 l 550 821 q 579 802 579 821 l 579 762 q 550 743 579 743 l 274 743 q 233 705 233 743 l 233 406 q 274 385 233 385 l 429 385 q 475 342 475 385 l 475 254 q 429 210 475 210 l 274 210 q 233 190 233 210 l 233 98 q 274 78 233 78 l 550 78 q 579 50 579 78 l 579 28 q 550 0 579 0 l 155 0 q 51 113 51 0 l 51 746 q 85 821 51 821 m 207 908 q 214 964 184 947 l 401 1078 q 455 1058 432 1096 q 446 1003 477 1021 l 258 890 q 207 908 229 872 z "},"Ñ":{"ha":631,"x_min":51,"x_max":581,"o":"m 580 746 l 580 74 q 545 0 580 0 l 427 0 q 387 26 397 0 l 244 361 q 234 361 234 386 l 233 74 q 203 0 234 0 l 86 0 q 51 74 52 0 l 51 746 q 86 821 52 821 l 203 821 q 244 802 233 821 l 377 555 q 397 555 397 517 l 397 746 q 425 821 397 821 l 557 821 q 580 746 581 821 m 378 975 q 446 980 417 969 q 489 1010 474 991 q 507 983 505 1028 q 490 919 510 937 q 443 891 469 901 q 381 887 416 882 q 306 911 346 892 q 252 926 278 923 q 185 921 214 932 q 141 891 157 909 q 123 919 126 873 q 141 982 121 964 q 188 1010 161 1000 q 250 1014 214 1019 q 325 989 285 1009 q 378 975 353 978 z "},"Ö":{"ha":631,"x_min":51,"x_max":580,"o":"m 225 884 l 156 884 q 121 922 121 884 l 121 960 q 156 998 121 998 l 225 998 q 256 960 256 998 l 256 922 q 225 884 256 884 m 479 884 l 410 884 q 374 922 374 884 l 374 960 q 410 998 374 998 l 479 998 q 509 960 509 998 l 509 922 q 479 884 509 884 m 475 0 l 155 0 q 51 211 51 0 l 51 662 q 155 821 51 821 l 475 821 q 580 662 580 821 l 580 211 q 475 0 580 0 m 233 618 l 233 175 q 274 78 233 78 l 358 78 q 397 175 397 78 l 397 618 q 358 743 397 743 l 274 743 q 233 618 233 743 z "},"Ü":{"ha":631,"x_min":51,"x_max":580,"o":"m 87 821 l 203 821 q 233 746 233 821 l 233 175 q 274 78 233 78 l 356 78 q 397 175 397 78 l 397 746 q 451 821 397 821 l 534 821 q 579 746 580 821 l 580 211 q 469 0 580 0 l 162 0 q 51 211 52 0 l 51 746 q 87 821 52 821 m 225 884 l 156 884 q 121 922 121 884 l 121 960 q 156 998 121 998 l 225 998 q 256 960 256 998 l 256 922 q 225 884 256 884 m 479 884 l 410 884 q 374 922 374 884 l 374 960 q 410 998 374 998 l 479 998 q 509 960 509 998 l 509 922 q 479 884 509 884 z "},"á":{"ha":631,"x_min":51,"x_max":580,"o":"m 207 908 q 214 964 184 947 l 401 1078 q 455 1058 432 1096 q 446 1003 477 1021 l 258 890 q 207 908 229 872 m 51 515 l 51 557 q 136 678 51 678 l 472 678 q 580 557 580 678 l 580 182 q 472 0 580 0 l 137 0 q 51 193 51 0 q 136 386 51 386 l 363 386 q 397 448 397 386 l 397 542 q 355 601 396 601 l 273 601 q 233 538 233 601 l 233 515 q 199 440 233 440 l 81 440 q 51 515 51 440 m 273 211 q 233 174 233 211 l 233 104 q 273 78 233 78 l 357 78 q 397 104 397 78 l 397 174 q 358 211 397 211 l 273 211 z "},"à":{"ha":631,"x_min":51,"x_max":580,"o":"m 402 890 l 214 1003 q 205 1058 184 1021 q 259 1078 229 1096 l 447 964 q 454 908 477 947 q 402 890 432 872 m 51 515 l 51 557 q 136 678 51 678 l 472 678 q 580 557 580 678 l 580 182 q 472 0 580 0 l 137 0 q 51 193 51 0 q 136 386 51 386 l 363 386 q 397 448 397 386 l 397 542 q 355 601 396 601 l 273 601 q 233 538 233 601 l 233 515 q 199 440 233 440 l 81 440 q 51 515 51 440 m 273 211 q 233 174 233 211 l 233 104 q 273 78 233 78 l 357 78 q 397 104 397 78 l 397 174 q 358 211 397 211 l 273 211 z "},"â":{"ha":631,"x_min":51,"x_max":580,"o":"m 431 899 q 315 969 393 922 q 199 899 237 922 q 161 885 182 888 q 140 927 140 882 q 156 975 140 972 q 189 986 172 978 q 315 1057 231 1010 q 441 986 399 1010 q 474 975 458 978 q 490 927 490 972 q 469 885 490 882 q 431 899 448 888 m 51 515 l 51 557 q 136 678 51 678 l 472 678 q 580 557 580 678 l 580 182 q 472 0 580 0 l 137 0 q 51 193 51 0 q 136 386 51 386 l 363 386 q 397 448 397 386 l 397 542 q 355 601 396 601 l 273 601 q 233 538 233 601 l 233 515 q 199 440 233 440 l 81 440 q 51 515 51 440 m 273 211 q 233 174 233 211 l 233 104 q 273 78 233 78 l 357 78 q 397 104 397 78 l 397 174 q 358 211 397 211 l 273 211 z "},"ä":{"ha":631,"x_min":51,"x_max":580,"o":"m 225 884 l 156 884 q 121 922 121 884 l 121 960 q 156 998 121 998 l 225 998 q 256 960 256 998 l 256 922 q 225 884 256 884 m 479 884 l 410 884 q 374 922 374 884 l 374 960 q 410 998 374 998 l 479 998 q 509 960 509 998 l 509 922 q 479 884 509 884 m 51 515 l 51 557 q 136 678 51 678 l 472 678 q 580 557 580 678 l 580 182 q 472 0 580 0 l 137 0 q 51 193 51 0 q 136 386 51 386 l 363 386 q 397 448 397 386 l 397 542 q 355 601 396 601 l 273 601 q 233 538 233 601 l 233 515 q 199 440 233 440 l 81 440 q 51 515 51 440 m 273 211 q 233 174 233 211 l 233 104 q 273 78 233 78 l 357 78 q 397 104 397 78 l 397 174 q 358 211 397 211 l 273 211 z "},"ã":{"ha":631,"x_min":51,"x_max":580,"o":"m 378 975 q 446 980 417 969 q 489 1010 474 991 q 507 983 505 1028 q 490 919 510 937 q 443 891 469 901 q 381 887 416 882 q 306 911 346 892 q 252 926 278 923 q 185 921 214 932 q 141 891 157 909 q 123 919 126 873 q 141 982 121 964 q 188 1010 161 1000 q 250 1014 214 1019 q 325 989 285 1009 q 378 975 353 978 m 51 515 l 51 557 q 136 678 51 678 l 472 678 q 580 557 580 678 l 580 182 q 472 0 580 0 l 137 0 q 51 193 51 0 q 136 386 51 386 l 363 386 q 397 448 397 386 l 397 542 q 355 601 396 601 l 273 601 q 233 538 233 601 l 233 515 q 199 440 233 440 l 81 440 q 51 515 51 440 m 273 211 q 233 174 233 211 l 233 104 q 273 78 233 78 l 357 78 q 397 104 397 78 l 397 174 q 358 211 397 211 l 273 211 z "},"å":{"ha":631,"x_min":51,"x_max":580,"o":"m 315 1019 q 364 1006 340 1019 q 401 970 388 994 q 415 920 415 946 q 402 870 415 894 q 365 834 389 847 q 315 821 342 821 q 266 834 290 821 q 230 870 243 847 q 216 920 216 894 q 230 970 216 946 q 267 1006 243 994 q 315 1019 290 1019 m 244 920 q 254 884 244 901 q 280 858 263 867 q 315 848 297 848 q 351 858 334 848 q 378 884 368 867 q 387 920 387 901 q 378 956 387 939 q 351 982 368 973 q 315 991 334 991 q 280 982 298 991 q 254 956 263 973 q 244 920 244 939 m 51 515 l 51 557 q 136 678 51 678 l 472 678 q 580 557 580 678 l 580 182 q 472 0 580 0 l 137 0 q 51 193 51 0 q 136 386 51 386 l 363 386 q 397 448 397 386 l 397 542 q 355 601 396 601 l 273 601 q 233 538 233 601 l 233 515 q 199 440 233 440 l 81 440 q 51 515 51 440 m 273 211 q 233 174 233 211 l 233 104 q 273 78 233 78 l 357 78 q 397 104 397 78 l 397 174 q 358 211 397 211 l 273 211 z "},"ç":{"ha":630,"x_min":51,"x_max":579,"o":"m 347 0 l 347 -41 q 393 -51 370 -43 q 441 -80 424 -61 q 458 -119 458 -99 q 446 -153 458 -137 q 444 -155 445 -154 q 441 -159 443 -157 q 437 -163 439 -161 q 391 -191 420 -181 q 330 -199 363 -200 q 271 -189 299 -198 q 229 -147 229 -176 q 327 -156 283 -161 q 371 -126 371 -151 q 300 -100 371 -102 q 229 -61 229 -98 l 229 0 l 156 0 q 51 114 51 0 l 51 566 q 156 680 51 680 l 475 680 q 579 560 579 680 l 579 515 q 549 441 579 441 l 432 441 q 397 515 397 441 q 358 602 397 602 l 274 602 q 233 479 233 602 l 233 203 q 274 78 233 78 l 358 78 q 397 164 397 78 q 432 239 397 239 l 549 239 q 579 164 579 239 l 579 119 q 475 0 579 0 l 347 0 z "},"é":{"ha":630,"x_min":51,"x_max":580,"o":"m 207 908 q 214 964 184 947 l 401 1078 q 455 1058 432 1096 q 446 1003 477 1021 l 258 890 q 207 908 229 872 m 545 292 l 428 292 l 426 292 l 233 292 l 233 203 q 274 78 233 78 l 358 78 q 397 164 397 78 q 432 239 397 239 l 549 239 q 580 164 580 239 l 580 119 q 476 0 580 0 l 156 0 q 51 114 51 0 l 51 566 q 156 680 51 680 l 476 680 q 580 560 580 680 l 580 367 q 545 292 580 292 m 358 603 l 274 603 q 233 479 233 603 l 233 382 l 393 382 q 358 603 396 603 z "},"è":{"ha":630,"x_min":51,"x_max":580,"o":"m 402 890 l 214 1003 q 205 1058 184 1021 q 259 1078 229 1096 l 447 964 q 454 908 477 947 q 402 890 432 872 m 545 292 l 428 292 l 426 292 l 233 292 l 233 203 q 274 78 233 78 l 358 78 q 397 164 397 78 q 432 239 397 239 l 549 239 q 580 164 580 239 l 580 119 q 476 0 580 0 l 156 0 q 51 114 51 0 l 51 566 q 156 680 51 680 l 476 680 q 580 560 580 680 l 580 367 q 545 292 580 292 m 358 603 l 274 603 q 233 479 233 603 l 233 382 l 393 382 q 358 603 396 603 z "},"ê":{"ha":630,"x_min":51,"x_max":580,"o":"m 431 899 q 315 969 393 922 q 199 899 237 922 q 161 885 182 888 q 140 927 140 882 q 156 975 140 972 q 189 986 172 978 q 315 1057 231 1010 q 441 986 399 1010 q 474 975 458 978 q 490 927 490 972 q 469 885 490 882 q 431 899 448 888 m 545 292 l 428 292 l 426 292 l 233 292 l 233 203 q 274 78 233 78 l 358 78 q 397 164 397 78 q 432 239 397 239 l 549 239 q 580 164 580 239 l 580 119 q 476 0 580 0 l 156 0 q 51 114 51 0 l 51 566 q 156 680 51 680 l 476 680 q 580 560 580 680 l 580 367 q 545 292 580 292 m 358 603 l 274 603 q 233 479 233 603 l 233 382 l 393 382 q 358 603 396 603 z "},"ë":{"ha":630,"x_min":51,"x_max":580,"o":"m 225 884 l 156 884 q 121 922 121 884 l 121 960 q 156 998 121 998 l 225 998 q 256 960 256 998 l 256 922 q 225 884 256 884 m 479 884 l 410 884 q 374 922 374 884 l 374 960 q 410 998 374 998 l 479 998 q 509 960 509 998 l 509 922 q 479 884 509 884 m 358 603 l 274 603 q 233 479 233 603 l 233 382 l 393 382 q 358 603 396 603 m 545 292 l 428 292 l 426 292 l 233 292 l 233 203 q 274 78 233 78 l 358 78 q 397 164 397 78 q 432 239 397 239 l 549 239 q 580 164 580 239 l 580 119 q 476 0 580 0 l 156 0 q 51 114 51 0 l 51 566 q 156 680 51 680 l 476 680 q 580 560 580 680 l 580 367 q 545 292 580 292 z "},"í":{"ha":395,"x_min":51,"x_max":344,"o":"m 74 907 q 81 964 51 946 l 269 1077 q 322 1057 299 1095 q 313 1002 344 1021 l 125 890 q 74 907 96 871 m 94 74 l 94 503 q 130 578 94 578 l 241 578 q 277 503 277 578 l 277 74 q 241 0 277 0 l 130 0 q 94 74 94 0 m 246 707 l 130 707 q 94 745 94 707 l 94 783 q 130 821 94 821 l 246 821 q 277 783 277 821 l 277 745 q 246 707 277 707 z "},"ì":{"ha":395,"x_min":51,"x_max":344,"o":"m 269 890 l 81 1002 q 73 1057 51 1021 q 126 1077 96 1095 l 314 964 q 321 907 344 946 q 269 890 299 871 m 94 74 l 94 503 q 130 578 94 578 l 241 578 q 277 503 277 578 l 277 74 q 241 0 277 0 l 130 0 q 94 74 94 0 m 247 707 l 130 707 q 95 745 95 707 l 95 783 q 130 821 95 821 l 247 821 q 277 783 277 821 l 277 745 q 247 707 277 707 z "},"î":{"ha":451,"x_min":51,"x_max":400,"o":"m 341 899 q 226 969 303 922 q 110 899 147 922 q 72 885 93 888 q 51 927 52 882 q 66 975 51 972 q 100 986 82 977 q 226 1057 142 1010 q 352 986 309 1010 q 385 975 369 978 q 400 927 400 972 q 379 885 400 882 q 341 899 359 888 m 134 74 l 134 503 q 170 578 134 578 l 281 578 q 317 503 317 578 l 317 74 q 281 0 317 0 l 170 0 q 134 74 134 0 m 286 707 l 170 707 q 134 745 134 707 l 134 783 q 170 821 134 821 l 286 821 q 317 783 317 821 l 317 745 q 286 707 317 707 z "},"ï":{"ha":490,"x_min":51,"x_max":439,"o":"m 155 884 l 86 884 q 51 922 51 884 l 51 960 q 86 998 51 998 l 155 998 q 186 960 186 998 l 186 922 q 155 884 186 884 m 409 884 l 340 884 q 304 922 304 884 l 304 960 q 340 998 304 998 l 409 998 q 439 960 439 998 l 439 922 q 409 884 439 884 m 150 74 l 150 503 q 186 578 150 578 l 297 578 q 332 503 332 578 l 332 74 q 297 0 332 0 l 186 0 q 150 74 150 0 m 302 707 l 185 707 q 150 745 150 707 l 150 783 q 185 821 150 821 l 302 821 q 332 783 332 821 l 332 745 q 302 707 332 707 z "},"ñ":{"ha":631,"x_min":51,"x_max":580,"o":"m 233 602 l 233 74 q 233 57 233 64 q 229 32 232 42 q 229 29 229 31 q 202 0 221 1 l 85 0 q 51 66 52 1 l 51 680 l 451 680 q 580 567 580 680 l 580 74 q 554 1 580 1 l 437 1 q 397 74 397 1 l 397 563 q 233 602 397 602 m 378 975 q 446 980 417 969 q 489 1010 474 991 q 507 983 505 1028 q 490 919 510 937 q 443 891 469 901 q 381 887 416 882 q 306 911 346 892 q 252 926 278 923 q 185 921 214 932 q 141 891 157 909 q 123 919 126 873 q 141 982 121 964 q 188 1010 161 1000 q 250 1014 214 1019 q 325 989 285 1009 q 378 975 353 978 z "},"ó":{"ha":631,"x_min":51,"x_max":580,"o":"m 207 908 q 214 964 184 947 l 401 1078 q 455 1058 432 1096 q 446 1003 477 1021 l 258 890 q 207 908 229 872 m 475 0 l 155 0 q 51 211 51 0 l 51 521 q 155 680 51 680 l 475 680 q 580 521 580 680 l 580 205 q 475 0 580 0 m 233 477 l 233 175 q 274 78 233 78 l 358 78 q 397 175 397 78 l 397 477 q 358 602 397 602 l 274 602 q 233 477 233 602 z "},"ò":{"ha":631,"x_min":51,"x_max":580,"o":"m 402 890 l 214 1003 q 205 1058 184 1021 q 259 1078 229 1096 l 447 964 q 454 908 477 947 q 402 890 432 872 m 475 0 l 155 0 q 51 211 51 0 l 51 521 q 155 680 51 680 l 475 680 q 580 521 580 680 l 580 205 q 475 0 580 0 m 233 477 l 233 175 q 274 78 233 78 l 358 78 q 397 175 397 78 l 397 477 q 358 602 397 602 l 274 602 q 233 477 233 602 z "},"ô":{"ha":631,"x_min":51,"x_max":580,"o":"m 431 899 q 315 969 393 922 q 199 899 237 922 q 161 885 182 888 q 140 927 140 882 q 156 975 140 972 q 189 986 172 978 q 315 1057 231 1010 q 441 986 399 1010 q 474 975 458 978 q 490 927 490 972 q 469 885 490 882 q 431 899 448 888 m 475 0 l 155 0 q 51 211 51 0 l 51 521 q 155 680 51 680 l 475 680 q 580 521 580 680 l 580 205 q 475 0 580 0 m 233 477 l 233 175 q 274 78 233 78 l 358 78 q 397 175 397 78 l 397 477 q 358 602 397 602 l 274 602 q 233 477 233 602 z "},"ö":{"ha":631,"x_min":51,"x_max":580,"o":"m 225 884 l 156 884 q 121 922 121 884 l 121 960 q 156 998 121 998 l 225 998 q 256 960 256 998 l 256 922 q 225 884 256 884 m 479 884 l 410 884 q 374 922 374 884 l 374 960 q 410 998 374 998 l 479 998 q 509 960 509 998 l 509 922 q 479 884 509 884 m 475 0 l 155 0 q 51 211 51 0 l 51 521 q 155 680 51 680 l 475 680 q 580 521 580 680 l 580 205 q 475 0 580 0 m 233 477 l 233 175 q 274 78 233 78 l 358 78 q 397 175 397 78 l 397 477 q 358 602 397 602 l 274 602 q 233 477 233 602 z "},"õ":{"ha":631,"x_min":51,"x_max":580,"o":"m 378 975 q 446 980 417 969 q 489 1010 474 991 q 507 983 505 1028 q 490 919 510 937 q 443 891 469 901 q 381 887 416 882 q 306 911 346 892 q 252 926 278 923 q 185 921 214 932 q 141 891 157 909 q 123 919 126 873 q 141 982 121 964 q 188 1010 161 1000 q 250 1014 214 1019 q 325 989 285 1009 q 378 975 353 978 m 475 0 l 155 0 q 51 211 51 0 l 51 521 q 155 680 51 680 l 475 680 q 580 521 580 680 l 580 205 q 475 0 580 0 m 233 477 l 233 175 q 274 78 233 78 l 358 78 q 397 175 397 78 l 397 477 q 358 602 397 602 l 274 602 q 233 477 233 602 z "},"ú":{"ha":631,"x_min":51,"x_max":580,"o":"m 206 908 q 213 964 183 947 l 401 1078 q 454 1058 431 1096 q 446 1003 476 1021 l 258 890 q 206 908 228 872 m 86 680 l 202 680 q 233 605 233 680 l 233 175 q 274 78 233 78 l 356 78 q 397 175 397 78 l 397 605 q 427 680 397 680 l 543 680 q 580 605 580 680 l 580 211 q 469 0 580 0 l 162 0 q 51 211 51 0 l 51 605 q 86 680 51 680 z "},"ù":{"ha":631,"x_min":51,"x_max":580,"o":"m 401 890 l 214 1003 q 205 1058 183 1021 q 258 1078 228 1096 l 446 964 q 453 908 476 947 q 401 890 431 872 m 86 680 l 202 680 q 233 605 233 680 l 233 175 q 274 78 233 78 l 356 78 q 397 175 397 78 l 397 605 q 427 680 397 680 l 543 680 q 580 605 580 680 l 580 211 q 469 0 580 0 l 162 0 q 51 211 51 0 l 51 605 q 86 680 51 680 z "},"û":{"ha":631,"x_min":51,"x_max":580,"o":"m 430 899 q 315 969 392 922 q 198 899 236 922 q 160 885 181 888 q 140 927 140 882 q 155 975 140 972 q 188 986 171 978 q 315 1057 231 1010 q 441 986 398 1010 q 473 975 458 978 q 489 927 489 972 q 468 885 489 882 q 430 899 447 888 m 86 680 l 202 680 q 233 605 233 680 l 233 175 q 274 78 233 78 l 356 78 q 397 175 397 78 l 397 605 q 427 680 397 680 l 543 680 q 580 605 580 680 l 580 211 q 469 0 580 0 l 162 0 q 51 211 51 0 l 51 605 q 86 680 51 680 z "},"ü":{"ha":631,"x_min":51,"x_max":580,"o":"m 224 884 l 155 884 q 120 922 120 884 l 120 960 q 155 998 120 998 l 224 998 q 255 960 255 998 l 255 922 q 224 884 255 884 m 478 884 l 409 884 q 374 922 374 884 l 374 960 q 409 998 374 998 l 478 998 q 509 960 509 998 l 509 922 q 478 884 509 884 m 86 680 l 202 680 q 233 605 233 680 l 233 175 q 274 78 233 78 l 356 78 q 397 175 397 78 l 397 605 q 427 680 397 680 l 543 680 q 580 605 580 680 l 580 211 q 469 0 580 0 l 162 0 q 51 211 51 0 l 51 605 q 86 680 51 680 z "},"†":{"ha":693,"x_min":51,"x_max":642,"o":"m 612 499 l 406 499 l 406 -169 q 368 -199 406 -199 l 330 -199 q 292 -169 292 -199 l 292 499 l 86 499 q 51 536 51 499 l 51 575 q 86 612 51 612 l 292 612 l 292 856 q 330 891 292 891 l 368 891 q 406 856 406 891 l 406 612 l 612 612 q 642 575 642 612 l 642 536 q 612 499 642 499 z "},"°":{"ha":300,"x_min":51,"x_max":250,"o":"m 150 1083 q 199 1070 175 1083 q 236 1034 222 1057 q 250 984 250 1010 q 236 935 250 958 q 200 898 223 911 q 150 885 176 885 q 101 898 124 885 q 64 935 77 911 q 51 984 51 958 q 64 1034 51 1010 q 101 1070 77 1057 q 150 1083 125 1083 m 79 984 q 88 948 79 965 q 115 922 98 931 q 150 912 132 912 q 186 922 169 912 q 212 948 203 931 q 222 984 222 965 q 212 1020 222 1002 q 185 1046 203 1037 q 150 1055 168 1055 q 115 1046 132 1055 q 88 1020 98 1037 q 79 984 79 1002 z "},"¢":{"ha":632,"x_min":51,"x_max":581,"o":"m 100 -201 l 172 0 l 156 0 q 51 114 51 0 l 51 537 q 156 651 51 651 l 410 651 l 488 865 q 539 884 500 899 q 569 836 581 869 l 501 648 q 579 532 579 635 l 579 487 q 549 412 579 412 l 432 412 q 416 417 423 412 l 293 78 l 358 78 q 397 164 397 78 q 432 239 397 239 l 549 239 q 579 164 579 239 l 579 119 q 475 0 579 0 l 264 0 l 181 -231 q 127 -248 169 -264 q 100 -201 87 -234 m 358 574 l 274 574 q 233 450 233 574 l 233 203 q 234 169 233 185 l 378 566 q 358 574 370 574 z "},"£":{"ha":729,"x_min":51,"x_max":678,"o":"m 648 582 l 532 582 q 496 656 496 582 q 468 743 496 743 l 360 743 q 334 618 334 743 l 334 384 l 429 384 q 475 340 475 384 l 475 253 q 429 209 475 209 l 334 209 l 334 202 l 332 201 l 332 110 q 365 77 332 77 l 648 77 q 678 57 678 77 l 678 18 q 648 0 678 0 l 216 0 q 150 70 150 0 l 150 209 l 97 209 q 51 253 51 209 l 51 340 q 97 384 51 384 l 150 384 l 150 707 q 255 821 150 821 l 574 821 q 678 701 678 821 l 678 656 q 648 582 678 582 z "},"§":{"ha":967,"x_min":51,"x_max":928,"o":"m 897 705 l 781 705 q 745 779 745 705 l 745 804 q 706 866 745 866 l 622 866 q 581 804 581 866 l 581 571 q 626 509 581 509 l 842 509 q 928 380 928 509 l 928 241 q 842 123 928 123 l 580 123 l 580 119 q 494 0 580 0 l 81 0 q 51 29 51 0 l 51 52 q 81 78 51 78 l 367 78 q 397 130 397 78 l 397 164 q 367 211 397 211 l 108 211 q 51 298 51 211 l 51 707 q 151 821 51 821 l 399 821 l 399 829 q 499 943 399 943 l 819 943 q 928 823 928 943 l 928 779 q 897 705 928 705 m 397 656 l 397 681 q 358 743 397 743 l 274 743 q 233 681 233 743 l 233 448 q 278 386 233 386 l 401 386 q 399 421 399 401 l 399 629 q 397 656 397 642 m 580 257 l 580 201 l 715 201 q 745 253 745 201 l 745 287 q 715 334 745 334 l 568 334 q 580 257 580 304 z "},"•":{"ha":534,"x_min":51,"x_max":484,"o":"m 267 681 q 373 653 321 681 q 454 573 425 625 q 484 465 484 522 q 455 357 484 408 q 375 277 427 306 q 267 249 323 249 q 159 277 211 249 q 79 357 108 306 q 51 465 51 408 q 80 573 51 522 q 161 653 109 625 q 267 681 212 681 z "},"¶":{"ha":583,"x_min":51,"x_max":532,"o":"m 532 746 l 532 74 q 496 0 531 0 l 454 0 q 424 74 424 0 l 424 656 q 391 692 424 692 l 351 692 l 336 691 l 336 74 q 300 0 335 0 l 258 0 q 228 74 228 0 l 228 480 q 195 515 228 515 l 155 515 q 51 603 51 515 l 51 709 q 155 821 51 821 l 302 821 l 303 821 l 498 821 q 532 746 531 821 z "},"ß":{"ha":630,"x_min":51,"x_max":579,"o":"m 357 78 q 397 104 397 78 l 397 174 q 357 211 397 211 q 323 255 323 211 l 323 342 q 356 386 323 386 q 397 448 397 386 l 397 681 q 356 743 397 743 l 267 743 q 233 681 233 743 l 233 0 l 51 0 l 51 618 q 96 772 51 723 q 222 821 140 821 l 396 821 q 543 764 506 821 q 579 614 579 707 l 579 471 q 514 317 579 386 q 579 185 579 248 q 567 87 579 122 q 489 0 555 53 l 327 0 q 300 20 300 0 l 300 39 l 300 58 q 327 78 300 78 l 357 78 z "},"®":{"ha":1035,"x_min":51,"x_max":984,"o":"m 517 1036 q 746 975 635 1036 q 921 803 858 915 q 984 569 984 691 q 923 337 984 448 q 750 165 861 227 q 517 103 639 103 q 285 165 396 103 q 112 337 174 227 q 51 569 51 448 q 114 803 51 691 q 288 975 176 915 q 517 1036 399 1036 m 87 569 q 144 355 87 457 q 303 196 201 253 q 517 140 406 140 q 732 196 629 140 q 891 355 834 253 q 947 569 947 457 q 889 785 947 682 q 728 943 831 888 q 517 998 625 998 q 306 943 408 998 q 145 785 203 888 q 87 569 87 682 m 734 551 q 706 500 724 523 q 683 479 695 488 q 705 458 694 471 q 734 408 724 436 q 735 403 734 406 q 741 380 739 391 q 743 353 743 366 l 743 298 q 714 238 743 238 l 619 238 q 595 298 595 238 l 595 398 q 561 409 595 409 l 467 409 q 462 398 462 409 l 462 298 q 437 238 462 238 l 343 238 q 314 298 314 238 l 314 842 q 343 903 314 903 l 658 903 q 743 774 743 903 l 743 638 q 734 551 743 580 m 467 840 q 462 836 462 840 l 462 555 q 467 551 462 551 l 563 551 q 595 589 595 551 l 595 808 q 563 840 595 840 l 467 840 z "},"©":{"ha":1035,"x_min":51,"x_max":984,"o":"m 517 1036 q 746 976 635 1036 q 921 804 858 916 q 984 570 984 692 q 923 337 984 448 q 750 165 861 227 q 517 104 639 104 q 285 165 396 104 q 112 337 174 227 q 51 570 51 448 q 114 804 51 692 q 288 976 176 916 q 517 1036 399 1036 m 87 570 q 144 356 87 458 q 303 197 201 254 q 517 140 406 140 q 732 197 629 140 q 891 356 834 254 q 947 570 947 458 q 889 785 947 682 q 728 944 831 888 q 517 999 625 999 q 306 944 408 999 q 145 785 203 888 q 87 570 87 682 m 718 709 l 623 709 q 595 770 595 709 q 563 840 595 840 l 494 840 q 462 741 462 840 l 462 403 q 494 301 462 301 l 563 301 q 595 371 595 301 q 623 431 595 431 l 718 431 q 742 371 742 431 l 742 335 q 658 238 742 238 l 399 238 q 314 330 314 238 l 314 810 q 399 903 314 903 l 658 903 q 742 806 742 903 l 742 770 q 718 709 742 709 z "},"™":{"ha":657,"x_min":51,"x_max":606,"o":"m 70 821 l 195 821 q 214 812 214 821 l 214 795 q 195 785 214 785 l 186 785 q 174 770 174 785 l 174 483 q 153 450 174 450 l 113 450 q 92 483 92 450 l 92 770 q 82 786 92 785 l 70 785 q 51 795 51 785 l 51 812 q 70 821 51 821 m 262 821 l 548 821 q 606 770 606 821 l 606 483 q 595 450 606 450 l 542 450 q 524 483 524 450 l 524 768 q 476 785 524 785 l 476 483 q 462 450 476 450 l 410 450 q 393 483 393 450 l 393 768 q 345 785 393 785 l 345 483 q 331 450 345 450 l 278 450 q 262 483 262 450 l 262 821 z "},"´":{"ha":395,"x_min":51,"x_max":344,"o":"m 74 908 q 81 964 51 947 l 269 1078 q 322 1058 299 1096 q 313 1003 344 1021 l 125 890 q 74 908 96 872 z "},"¨":{"ha":490,"x_min":51,"x_max":439,"o":"m 155 884 l 86 884 q 51 922 51 884 l 51 960 q 86 998 51 998 l 155 998 q 186 960 186 998 l 186 922 q 155 884 186 884 m 409 884 l 340 884 q 304 922 304 884 l 304 960 q 340 998 304 998 l 409 998 q 439 960 439 998 l 439 922 q 409 884 439 884 z "},"≠":{"ha":595,"x_min":51,"x_max":545,"o":"m 498 120 l 272 120 l 144 -231 q 90 -248 132 -264 q 63 -201 51 -234 l 180 120 l 104 120 q 68 157 68 120 l 68 196 q 104 233 68 233 l 221 233 l 273 378 l 104 378 q 68 415 68 378 l 68 454 q 104 491 68 491 l 315 491 l 451 865 q 503 884 463 899 q 532 836 545 869 l 407 491 l 498 491 q 529 454 529 491 l 529 415 q 498 378 529 378 l 366 378 l 313 233 l 498 233 q 529 196 529 233 l 529 157 q 498 120 529 120 z "},"Æ":{"ha":977,"x_min":51,"x_max":926,"o":"m 432 821 l 476 821 l 481 821 l 897 821 q 926 802 926 821 l 926 762 q 897 743 926 743 l 621 743 q 580 705 580 743 l 580 669 l 580 662 l 580 404 q 621 385 582 385 l 775 385 q 821 342 821 385 l 821 254 q 775 210 821 210 l 621 210 q 580 192 582 210 l 580 98 q 621 78 580 78 l 897 78 q 926 50 926 78 l 926 28 q 897 0 926 0 l 538 0 l 536 0 l 440 0 q 397 75 397 0 l 397 140 q 357 211 395 211 l 275 211 q 233 130 233 211 l 233 75 q 186 0 233 0 l 94 0 q 51 75 51 0 l 51 662 q 155 821 51 821 l 430 821 l 432 821 m 233 618 l 233 483 q 275 386 233 386 l 357 386 q 397 473 395 386 l 397 631 q 357 743 395 743 l 275 743 q 233 618 233 743 z "},"Ø":{"ha":831,"x_min":51,"x_max":780,"o":"m 71 -35 l 152 91 q 140 211 140 138 l 140 662 q 244 821 140 821 l 565 821 q 617 807 595 821 l 688 916 q 743 924 707 946 q 761 869 780 899 l 665 722 q 669 662 669 695 l 669 205 q 565 0 669 0 l 244 0 q 203 10 221 0 l 143 -82 q 86 -87 123 -112 q 71 -35 51 -64 m 323 618 l 323 353 l 487 606 l 487 618 q 448 743 487 743 l 363 743 q 323 618 323 743 m 363 78 l 448 78 q 487 175 487 78 l 487 448 l 323 195 l 323 175 q 363 78 323 78 z "},"∞":{"ha":34,"x_min":0,"x_max":0,"o":""},"µ":{"ha":631,"x_min":51,"x_max":580,"o":"m 51 605 q 86 680 51 680 l 202 680 q 233 605 233 680 l 233 175 q 274 78 233 78 l 356 78 q 397 175 397 78 l 397 605 q 427 680 397 680 l 543 680 q 580 605 580 680 l 580 211 q 469 0 580 0 l 233 0 l 233 -151 q 203 -221 233 -221 l 87 -221 q 51 -151 51 -221 l 51 605 z "},"∂":{"ha":631,"x_min":51,"x_max":580,"o":"m 51 515 l 51 557 q 136 678 51 678 l 472 678 q 580 557 580 678 l 580 318 q 384 0 580 0 l 137 0 q 51 193 51 0 q 136 386 51 386 l 363 386 q 397 448 397 386 l 397 542 q 355 601 396 601 l 273 601 q 233 538 233 601 l 233 515 q 199 440 233 440 l 81 440 q 51 515 51 440 m 273 211 q 233 174 233 211 l 233 104 q 273 78 233 78 l 337 78 q 397 174 377 78 q 358 211 397 211 l 273 211 z "},"Ω":{"ha":829,"x_min":51,"x_max":778,"o":"m 302 0 l 80 0 q 51 28 51 0 l 51 50 q 80 78 51 78 l 151 78 l 150 610 q 261 821 150 821 l 568 821 q 679 610 678 821 l 679 78 l 749 78 q 778 50 778 78 l 778 28 q 749 0 778 0 l 527 0 q 496 75 496 0 l 496 646 q 456 743 496 743 l 374 743 q 333 646 333 743 l 333 75 q 302 0 333 0 z "},"æ":{"ha":977,"x_min":51,"x_max":926,"o":"m 486 1 q 472 0 479 0 l 137 0 q 51 193 51 0 q 136 386 51 386 l 363 386 q 397 448 397 386 l 397 542 q 355 601 396 601 l 273 601 q 233 538 233 601 l 233 515 q 199 440 233 440 l 81 440 q 51 515 51 440 l 51 557 q 136 678 51 678 l 476 678 q 503 680 488 680 l 822 680 q 926 561 926 680 l 926 367 q 891 292 926 292 l 580 292 l 580 203 q 621 78 580 78 l 705 78 q 744 164 744 78 q 779 239 744 239 l 895 239 q 926 164 926 239 l 926 119 q 822 0 926 0 l 503 0 q 486 1 494 0 m 580 382 l 740 382 q 705 603 743 603 l 621 603 q 580 479 580 603 l 580 382 m 397 174 q 358 211 397 211 l 273 211 q 233 174 233 211 l 233 104 q 273 78 233 78 l 357 78 q 397 104 397 78 l 397 174 z "},"ø":{"ha":762,"x_min":17,"x_max":746,"o":"m 37 -35 l 118 91 q 106 211 106 138 l 106 662 q 210 821 106 821 l 531 821 q 583 807 562 821 l 654 916 q 709 924 673 946 q 727 869 746 899 l 631 722 q 635 662 635 695 l 635 205 q 531 0 635 0 l 210 0 q 169 10 187 0 l 109 -82 q 52 -87 90 -112 q 37 -35 17 -64 m 289 618 l 289 353 l 453 606 l 453 618 q 414 743 453 743 l 330 743 q 289 618 289 743 m 330 78 l 414 78 q 453 175 453 78 l 453 448 l 289 195 l 289 175 q 330 78 289 78 z "},"¿":{"ha":562,"x_min":17,"x_max":545,"o":"m 282 610 l 399 610 q 434 535 434 610 l 434 429 q 399 359 431 359 l 228 359 q 201 332 201 359 l 201 118 q 228 77 201 78 l 336 77 q 363 161 363 77 q 405 211 363 211 l 494 211 q 545 106 545 211 q 519 37 545 73 q 441 0 494 0 l 122 0 q 17 114 17 0 l 17 354 q 122 468 17 468 l 241 468 q 252 481 252 468 l 252 535 q 282 610 252 610 m 282 821 l 399 821 q 434 783 434 821 l 434 745 q 399 707 434 707 l 282 707 q 252 745 252 707 l 252 783 q 282 821 252 821 z "},"¡":{"ha":216,"x_min":17,"x_max":199,"o":"m 199 535 l 199 75 q 169 0 199 0 l 52 0 q 17 75 17 0 l 17 535 q 52 610 17 610 l 169 610 q 199 535 199 610 m 199 783 l 199 745 q 169 707 199 707 l 52 707 q 17 745 17 707 l 17 783 q 52 821 17 821 l 169 821 q 199 783 199 821 z "},"ƒ":{"ha":612,"x_min":50,"x_max":563,"o":"m 224 429 q 205 478 234 478 l 179 478 q 147 490 144 478 l 155 528 q 195 542 157 542 l 218 542 q 256 587 248 542 l 290 749 q 396 816 304 816 l 543 816 q 561 806 563 816 l 553 765 q 527 752 551 752 l 505 752 q 454 722 467 752 l 424 572 q 448 542 423 542 l 471 542 q 503 530 505 542 l 495 492 q 455 478 492 478 l 435 478 q 400 456 412 478 l 323 76 q 218 9 310 9 l 71 9 q 52 20 50 9 l 60 60 q 87 73 63 73 l 109 73 q 160 103 146 73 l 224 429 z "},"≈":{"ha":664,"x_min":51,"x_max":613,"o":"m 423 369 q 520 377 479 362 q 583 416 561 392 q 609 380 605 441 q 584 294 613 319 q 516 257 554 270 q 427 251 478 244 q 318 284 376 258 q 241 304 278 300 q 144 297 186 312 q 81 257 103 281 q 55 294 59 233 q 80 379 51 355 q 148 417 110 404 q 237 423 186 430 q 346 389 288 416 q 423 369 387 374 m 423 600 q 520 608 479 593 q 583 647 561 623 q 609 610 605 671 q 584 525 613 549 q 516 488 554 500 q 427 482 478 475 q 318 515 376 489 q 241 535 278 530 q 144 527 186 543 q 81 488 103 512 q 55 525 59 464 q 80 610 51 585 q 148 647 110 634 q 237 653 186 661 q 346 620 288 646 q 423 600 387 605 z "},"…":{"ha":962,"x_min":51,"x_max":911,"o":"m 203 0 l 86 0 q 51 37 51 0 l 51 76 q 86 113 51 113 l 203 113 q 233 76 233 113 l 233 37 q 203 0 233 0 m 542 0 l 425 0 q 390 37 390 0 l 390 76 q 425 113 390 113 l 542 113 q 572 76 572 113 l 572 37 q 542 0 572 0 m 881 0 l 764 0 q 729 37 729 0 l 729 76 q 764 113 729 113 l 881 113 q 911 76 911 113 l 911 37 q 881 0 911 0 z "},"À":{"ha":631,"x_min":51,"x_max":580,"o":"m 397 75 l 397 130 q 356 211 397 211 l 274 211 q 233 132 233 211 l 233 75 q 191 0 233 0 l 94 0 q 51 75 51 0 l 51 662 q 155 821 51 821 l 476 821 q 580 662 580 821 l 580 75 q 536 0 580 0 l 445 0 q 397 75 397 0 m 356 743 l 274 743 q 233 618 233 743 l 233 483 q 274 386 233 386 l 356 386 q 397 483 397 386 l 397 618 q 356 743 397 743 m 402 890 l 214 1003 q 205 1058 184 1021 q 259 1078 229 1096 l 447 964 q 454 908 477 947 q 402 890 432 872 z "},"Ã":{"ha":631,"x_min":51,"x_max":580,"o":"m 397 75 l 397 130 q 356 211 397 211 l 274 211 q 233 132 233 211 l 233 75 q 191 0 233 0 l 94 0 q 51 75 51 0 l 51 662 q 155 821 51 821 l 476 821 q 580 662 580 821 l 580 75 q 536 0 580 0 l 445 0 q 397 75 397 0 m 356 743 l 274 743 q 233 618 233 743 l 233 483 q 274 386 233 386 l 356 386 q 397 483 397 386 l 397 618 q 356 743 397 743 m 378 975 q 446 980 417 969 q 489 1010 474 991 q 507 983 505 1028 q 490 919 510 937 q 443 891 469 901 q 381 887 416 882 q 306 911 346 892 q 252 926 278 923 q 185 921 214 932 q 141 891 157 909 q 123 919 126 873 q 141 982 121 964 q 188 1010 161 1000 q 250 1014 214 1019 q 325 989 285 1009 q 378 975 353 978 z "},"Õ":{"ha":631,"x_min":51,"x_max":580,"o":"m 475 0 l 155 0 q 51 211 51 0 l 51 662 q 155 821 51 821 l 475 821 q 580 662 580 821 l 580 205 q 475 0 580 0 m 233 618 l 233 175 q 274 78 233 78 l 358 78 q 397 175 397 78 l 397 618 q 358 743 397 743 l 274 743 q 233 618 233 743 m 378 975 q 446 980 417 969 q 489 1010 474 991 q 507 983 505 1028 q 490 919 510 937 q 443 891 469 901 q 381 887 416 882 q 306 911 346 892 q 252 926 278 923 q 185 921 214 932 q 141 891 157 909 q 123 919 126 873 q 141 982 121 964 q 188 1010 161 1000 q 250 1014 214 1019 q 325 989 285 1009 q 378 975 353 978 z "},"Œ":{"ha":977,"x_min":51,"x_max":926,"o":"m 432 821 l 897 821 q 926 802 926 821 l 926 762 q 897 743 926 743 l 621 743 q 580 705 580 743 l 580 669 l 580 662 l 580 404 q 621 385 582 385 l 775 385 q 821 342 821 385 l 821 254 q 775 210 821 210 l 621 210 q 580 190 580 210 l 580 98 q 621 78 580 78 l 897 78 q 926 50 926 78 l 926 28 q 897 0 926 0 l 502 0 q 487 1 494 0 q 475 0 481 0 l 155 0 q 51 211 51 0 l 51 662 q 155 821 51 821 l 430 821 l 432 821 m 233 618 l 233 175 q 274 78 233 78 l 358 78 q 397 175 397 78 l 397 631 q 358 743 395 743 l 274 743 q 233 618 233 743 z "},"œ":{"ha":976,"x_min":51,"x_max":925,"o":"m 487 1 q 475 0 481 0 l 155 0 q 51 211 51 0 l 51 521 q 155 680 51 680 l 484 680 q 502 680 492 680 l 821 680 q 925 561 925 680 l 925 367 q 890 292 925 292 l 580 292 l 580 205 q 579 182 580 193 q 620 78 583 78 l 704 78 q 743 164 743 78 q 778 239 743 239 l 895 239 q 925 164 925 239 l 925 119 q 821 0 925 0 l 502 0 q 487 1 494 0 m 580 509 l 580 382 l 739 382 q 704 603 742 603 l 620 603 q 580 509 585 603 m 397 151 l 397 508 q 358 602 392 602 l 274 602 q 233 477 233 602 l 233 175 q 274 78 233 78 l 358 78 q 397 151 392 78 z "},"–":{"ha":652,"x_min":51,"x_max":602,"o":"m 571 249 l 86 249 q 51 286 51 249 l 51 325 q 86 362 51 362 l 571 362 q 602 325 602 362 l 602 286 q 571 249 602 249 z "},"—":{"ha":1193,"x_min":51,"x_max":1142,"o":"m 1112 248 l 86 248 q 51 286 51 248 l 51 324 q 86 361 51 361 l 1112 361 q 1142 324 1142 361 l 1142 286 q 1112 248 1142 248 z "},"“":{"ha":535,"x_min":51,"x_max":484,"o":"m 404 994 l 441 981 l 413 859 q 484 822 484 859 l 484 783 q 449 746 484 746 l 332 746 q 302 783 302 746 l 302 822 q 404 994 302 859 m 153 994 l 191 981 l 162 859 q 233 822 233 859 l 233 783 q 198 746 233 746 l 81 746 q 51 783 51 746 l 51 822 q 153 994 51 859 z "},"”":{"ha":535,"x_min":51,"x_max":484,"o":"m 132 746 l 94 759 l 122 881 q 51 918 51 881 l 51 957 q 86 994 51 994 l 203 994 q 233 957 233 994 l 233 918 q 132 746 233 881 m 382 746 l 345 759 l 373 881 q 302 918 302 881 l 302 957 q 337 994 302 994 l 454 994 q 484 957 484 994 l 484 918 q 382 746 484 881 z "},"‘":{"ha":284,"x_min":51,"x_max":233,"o":"m 153 994 l 191 981 l 162 859 q 233 822 233 859 l 233 783 q 198 746 233 746 l 81 746 q 51 783 51 746 l 51 822 q 153 994 51 859 z "},"’":{"ha":284,"x_min":51,"x_max":233,"o":"m 132 746 l 94 759 l 122 881 q 51 918 51 881 l 51 957 q 86 994 51 994 l 203 994 q 233 957 233 994 l 233 918 q 132 746 233 881 z "},"÷":{"ha":549,"x_min":71,"x_max":532,"o":"m 501 249 l 106 249 q 71 286 71 249 l 71 325 q 106 362 71 362 l 501 362 q 532 325 532 362 l 532 286 q 501 249 532 249 m 362 454 l 245 454 q 210 492 210 454 l 210 530 q 245 568 210 568 l 362 568 q 393 530 393 568 l 393 492 q 362 454 393 454 m 362 43 l 245 43 q 210 81 210 43 l 210 119 q 245 157 210 157 l 362 157 q 393 119 393 157 l 393 81 q 362 43 393 43 z "},"ÿ":{"ha":587,"x_min":36,"x_max":565,"o":"m 72 680 l 188 680 q 218 606 218 680 l 218 434 q 259 386 218 386 l 342 386 q 382 434 382 386 l 382 606 q 413 680 382 680 l 529 680 q 565 606 565 680 l 565 182 q 383 0 565 0 l 67 0 q 36 29 36 0 l 36 52 q 67 78 36 78 l 356 78 q 382 103 382 78 l 382 160 q 356 211 382 211 l 133 211 q 36 298 36 211 l 36 606 q 72 680 36 680 m 210 884 l 141 884 q 106 922 106 884 l 106 960 q 141 998 106 998 l 210 998 q 241 960 241 998 l 241 922 q 210 884 241 884 m 464 884 l 395 884 q 359 922 359 884 l 359 960 q 395 998 359 998 l 464 998 q 494 960 494 998 l 494 922 q 464 884 494 884 z "},"Ÿ":{"ha":631,"x_min":51,"x_max":580,"o":"m 87 821 l 203 821 q 233 746 233 821 l 233 434 q 274 386 233 386 l 357 386 q 397 434 397 386 l 397 746 q 428 821 397 821 l 544 821 q 580 746 580 821 l 580 182 q 398 0 580 0 l 82 0 q 51 29 51 0 l 51 52 q 82 78 51 78 l 371 78 q 397 103 397 78 l 397 160 q 371 211 397 211 l 148 211 q 51 299 51 211 l 51 746 q 87 821 51 821 m 225 884 l 156 884 q 121 922 121 884 l 121 960 q 156 998 121 998 l 225 998 q 256 960 256 998 l 256 922 q 225 884 256 884 m 479 884 l 410 884 q 374 922 374 884 l 374 960 q 410 998 374 998 l 479 998 q 509 960 509 998 l 509 922 q 479 884 509 884 z "},"€":{"ha":766,"x_min":51,"x_max":715,"o":"m 481 446 l 369 446 l 369 301 l 481 301 q 511 264 511 301 l 511 225 q 481 188 511 188 l 369 188 l 369 115 q 410 77 369 77 l 686 77 q 715 50 715 77 l 715 28 q 686 0 715 0 l 289 0 q 186 113 186 0 l 186 188 l 86 188 q 51 225 51 188 l 51 264 q 86 301 51 301 l 186 301 l 186 446 l 86 446 q 51 483 51 446 l 51 522 q 86 559 51 559 l 186 559 l 186 707 q 291 821 186 821 l 686 821 q 715 793 715 821 l 715 771 q 686 743 715 743 l 410 743 q 369 705 369 743 l 369 559 l 481 559 q 511 522 511 559 l 511 483 q 481 446 511 446 z "},"":{"ha":684,"x_min":51,"x_max":633,"o":"m 117 549 q 141 589 141 549 l 141 709 q 245 823 141 823 l 387 823 q 416 804 416 823 l 416 764 q 387 745 416 745 l 364 745 q 323 707 323 745 l 323 589 q 347 549 323 549 l 370 549 q 412 529 412 549 l 412 491 q 370 471 412 471 l 350 471 q 323 448 328 471 l 323 75 q 294 3 323 3 l 177 3 q 141 75 141 3 l 141 431 l 140 431 q 120 471 140 471 l 94 471 q 51 491 51 471 l 51 529 q 94 549 51 549 l 117 549 m 451 75 l 451 503 q 487 578 451 578 l 598 578 q 633 503 633 578 l 633 75 q 598 0 633 0 l 487 0 q 451 75 451 0 m 603 707 l 486 707 q 451 745 451 707 l 451 783 q 486 821 451 821 l 603 821 q 633 783 633 821 l 633 745 q 603 707 633 707 z "},"":{"ha":684,"x_min":51,"x_max":633,"o":"m 117 549 q 141 589 141 549 l 141 709 q 245 823 141 823 l 387 823 q 416 804 416 823 l 416 764 q 387 745 416 745 l 364 745 q 323 707 323 745 l 323 589 q 347 549 323 549 l 370 549 q 412 529 412 549 l 412 491 q 370 471 412 471 l 350 471 q 323 448 328 471 l 323 75 q 294 3 323 3 l 177 3 q 141 75 141 3 l 141 431 l 140 431 q 120 471 140 471 l 94 471 q 51 491 51 471 l 51 529 q 94 549 51 549 l 117 549 m 487 821 l 604 821 q 633 746 633 821 l 633 70 q 604 0 633 0 l 487 0 q 451 70 451 0 l 451 746 q 487 821 451 821 z "},"‡":{"ha":693,"x_min":51,"x_max":642,"o":"m 612 499 l 406 499 l 406 193 l 612 193 q 642 155 642 193 l 642 117 q 612 79 642 79 l 406 79 l 406 -169 q 368 -199 406 -199 l 330 -199 q 292 -169 292 -199 l 292 79 l 86 79 q 51 117 51 79 l 51 155 q 86 193 51 193 l 292 193 l 292 499 l 86 499 q 51 536 51 499 l 51 575 q 86 612 51 612 l 292 612 l 292 856 q 330 891 292 891 l 368 891 q 406 856 406 891 l 406 612 l 612 612 q 642 575 642 612 l 642 536 q 612 499 642 499 z "},"·":{"ha":284,"x_min":51,"x_max":233,"o":"m 203 249 l 86 249 q 51 286 51 249 l 51 325 q 86 362 51 362 l 203 362 q 233 325 233 362 l 233 286 q 203 249 233 249 z "},"‚":{"ha":284,"x_min":51,"x_max":233,"o":"m 132 -135 l 94 -122 l 122 0 q 51 37 51 0 l 51 76 q 86 113 51 113 l 203 113 q 233 76 233 113 l 233 37 q 132 -135 233 0 z "},"„":{"ha":535,"x_min":51,"x_max":484,"o":"m 132 -135 l 94 -122 l 122 0 q 51 37 51 0 l 51 76 q 86 113 51 113 l 203 113 q 233 76 233 113 l 233 37 q 132 -135 233 0 m 382 -135 l 345 -122 l 373 0 q 302 37 302 0 l 302 76 q 337 113 302 113 l 454 113 q 484 76 484 113 l 484 37 q 382 -135 484 0 z "},"‰":{"ha":1172,"x_min":51,"x_max":1121,"o":"m 286 420 l 109 420 q 51 538 51 420 l 51 812 q 109 875 51 875 l 286 875 q 344 812 344 875 l 344 533 q 286 420 344 420 m 222 834 l 174 834 q 152 765 152 834 l 152 515 q 174 460 152 460 l 222 460 q 243 515 243 460 l 243 765 q 222 834 243 834 m 718 -34 l 541 -34 q 484 83 484 -34 l 484 357 q 541 420 484 420 l 718 420 q 775 357 775 420 l 775 79 q 718 -34 775 -34 m 654 380 l 607 380 q 585 311 585 380 l 585 60 q 607 7 585 7 l 654 7 q 675 60 675 7 l 675 311 q 654 380 675 380 m 141 -74 l 621 954 q 674 969 636 987 q 700 918 715 950 l 220 -111 q 165 -123 205 -142 q 141 -74 127 -106 m 1064 -34 l 886 -34 q 829 83 829 -34 l 829 357 q 886 420 829 420 l 1064 420 q 1121 357 1121 420 l 1121 79 q 1064 -34 1121 -34 m 1000 380 l 953 380 q 930 311 930 380 l 930 60 q 953 7 930 7 l 1000 7 q 1021 60 1021 7 l 1021 311 q 1000 380 1021 380 z "},"Â":{"ha":631,"x_min":51,"x_max":580,"o":"m 397 75 l 397 130 q 356 211 397 211 l 274 211 q 233 132 233 211 l 233 75 q 191 0 233 0 l 94 0 q 51 75 51 0 l 51 662 q 155 821 51 821 l 476 821 q 580 662 580 821 l 580 75 q 536 0 580 0 l 445 0 q 397 75 397 0 m 356 743 l 274 743 q 233 618 233 743 l 233 483 q 274 386 233 386 l 356 386 q 397 483 397 386 l 397 618 q 356 743 397 743 m 431 899 q 315 969 393 922 q 199 899 237 922 q 161 885 182 888 q 140 927 140 882 q 156 975 140 972 q 189 986 172 978 q 315 1057 231 1010 q 441 986 399 1010 q 474 975 458 978 q 490 927 490 972 q 469 885 490 882 q 431 899 448 888 z "},"Ê":{"ha":630,"x_min":51,"x_max":579,"o":"m 85 821 l 550 821 q 579 802 579 821 l 579 762 q 550 743 579 743 l 274 743 q 233 705 233 743 l 233 406 q 274 385 233 385 l 429 385 q 475 342 475 385 l 475 254 q 429 210 475 210 l 274 210 q 233 190 233 210 l 233 98 q 274 78 233 78 l 550 78 q 579 50 579 78 l 579 28 q 550 0 579 0 l 155 0 q 51 113 51 0 l 51 746 q 85 821 51 821 m 431 899 q 315 969 393 922 q 199 899 237 922 q 161 885 182 888 q 140 927 140 882 q 156 975 140 972 q 189 986 172 978 q 315 1057 231 1010 q 441 986 399 1010 q 474 975 458 978 q 490 927 490 972 q 469 885 490 882 q 431 899 448 888 z "},"Á":{"ha":631,"x_min":51,"x_max":580,"o":"m 397 75 l 397 130 q 356 211 397 211 l 274 211 q 233 132 233 211 l 233 75 q 191 0 233 0 l 94 0 q 51 75 51 0 l 51 662 q 155 821 51 821 l 476 821 q 580 662 580 821 l 580 75 q 536 0 580 0 l 445 0 q 397 75 397 0 m 356 743 l 274 743 q 233 618 233 743 l 233 483 q 274 386 233 386 l 356 386 q 397 483 397 386 l 397 618 q 356 743 397 743 m 207 908 q 214 964 184 947 l 401 1078 q 455 1058 432 1096 q 446 1003 477 1021 l 258 890 q 207 908 229 872 z "},"Ë":{"ha":630,"x_min":51,"x_max":579,"o":"m 85 821 l 550 821 q 579 802 579 821 l 579 762 q 550 743 579 743 l 274 743 q 233 705 233 743 l 233 406 q 274 385 233 385 l 429 385 q 475 342 475 385 l 475 254 q 429 210 475 210 l 274 210 q 233 190 233 210 l 233 98 q 274 78 233 78 l 550 78 q 579 50 579 78 l 579 28 q 550 0 579 0 l 155 0 q 51 113 51 0 l 51 746 q 85 821 51 821 m 225 884 l 156 884 q 121 922 121 884 l 121 960 q 156 998 121 998 l 225 998 q 256 960 256 998 l 256 922 q 225 884 256 884 m 479 884 l 410 884 q 374 922 374 884 l 374 960 q 410 998 374 998 l 479 998 q 509 960 509 998 l 509 922 q 479 884 509 884 z "},"È":{"ha":630,"x_min":51,"x_max":579,"o":"m 85 821 l 550 821 q 579 802 579 821 l 579 762 q 550 743 579 743 l 274 743 q 233 705 233 743 l 233 406 q 274 385 233 385 l 429 385 q 475 342 475 385 l 475 254 q 429 210 475 210 l 274 210 q 233 190 233 210 l 233 98 q 274 78 233 78 l 550 78 q 579 50 579 78 l 579 28 q 550 0 579 0 l 155 0 q 51 113 51 0 l 51 746 q 85 821 51 821 m 402 890 l 214 1003 q 205 1058 184 1021 q 259 1078 229 1096 l 447 964 q 454 908 477 947 q 402 890 432 872 z "},"Í":{"ha":395,"x_min":51,"x_max":344,"o":"m 94 75 l 94 746 q 130 821 94 821 l 241 821 q 277 746 277 821 l 277 75 q 241 0 277 0 l 130 0 q 94 75 94 0 m 74 907 q 81 964 51 946 l 269 1077 q 322 1057 299 1095 q 313 1002 344 1021 l 125 890 q 74 907 96 871 z "},"Î":{"ha":451,"x_min":51,"x_max":400,"o":"m 134 75 l 134 746 q 170 821 134 821 l 226 821 l 281 821 q 317 746 317 821 l 317 75 q 281 0 317 0 l 170 0 q 134 75 134 0 m 341 899 q 226 969 303 922 q 110 899 147 922 q 72 885 93 888 q 51 927 52 882 q 66 975 51 972 q 100 986 82 977 q 226 1057 142 1010 q 352 986 309 1010 q 385 975 369 978 q 400 927 400 972 q 379 885 400 882 q 341 899 359 888 z "},"Ï":{"ha":490,"x_min":51,"x_max":439,"o":"m 150 75 l 150 746 q 186 821 150 821 l 297 821 q 332 746 332 821 l 332 75 q 297 0 332 0 l 186 0 q 150 75 150 0 m 155 884 l 86 884 q 51 922 51 884 l 51 960 q 86 998 51 998 l 155 998 q 186 960 186 998 l 186 922 q 155 884 186 884 m 409 884 l 340 884 q 304 922 304 884 l 304 960 q 340 998 304 998 l 409 998 q 439 960 439 998 l 439 922 q 409 884 439 884 z "},"Ì":{"ha":395,"x_min":51,"x_max":344,"o":"m 94 75 l 94 746 q 130 821 94 821 l 241 821 q 277 746 277 821 l 277 75 q 241 0 277 0 l 130 0 q 94 75 94 0 m 269 890 l 81 1002 q 73 1057 51 1021 q 126 1077 96 1095 l 314 964 q 321 907 344 946 q 269 890 299 871 z "},"Ó":{"ha":631,"x_min":51,"x_max":580,"o":"m 475 0 l 155 0 q 51 211 51 0 l 51 662 q 155 821 51 821 l 475 821 q 580 662 580 821 l 580 205 q 475 0 580 0 m 233 618 l 233 175 q 274 78 233 78 l 358 78 q 397 175 397 78 l 397 618 q 358 743 397 743 l 274 743 q 233 618 233 743 m 207 908 q 214 964 184 947 l 401 1078 q 455 1058 432 1096 q 446 1003 477 1021 l 258 890 q 207 908 229 872 z "},"Ô":{"ha":631,"x_min":51,"x_max":580,"o":"m 475 0 l 155 0 q 51 211 51 0 l 51 662 q 155 821 51 821 l 475 821 q 580 662 580 821 l 580 205 q 475 0 580 0 m 233 618 l 233 175 q 274 78 233 78 l 358 78 q 397 175 397 78 l 397 618 q 358 743 397 743 l 274 743 q 233 618 233 743 m 431 899 q 315 969 393 922 q 199 899 237 922 q 161 885 182 888 q 140 927 140 882 q 156 975 140 972 q 189 986 172 978 q 315 1057 231 1010 q 441 986 399 1010 q 474 975 458 978 q 490 927 490 972 q 469 885 490 882 q 431 899 448 888 z "},"Ò":{"ha":631,"x_min":51,"x_max":580,"o":"m 475 0 l 155 0 q 51 211 51 0 l 51 662 q 155 821 51 821 l 475 821 q 580 662 580 821 l 580 205 q 475 0 580 0 m 233 618 l 233 175 q 274 78 233 78 l 358 78 q 397 175 397 78 l 397 618 q 358 743 397 743 l 274 743 q 233 618 233 743 m 402 890 l 214 1003 q 205 1058 184 1021 q 259 1078 229 1096 l 447 964 q 454 908 477 947 q 402 890 432 872 z "},"Ú":{"ha":631,"x_min":51,"x_max":580,"o":"m 207 908 q 214 964 184 947 l 401 1078 q 455 1058 432 1096 q 446 1003 477 1021 l 258 890 q 207 908 229 872 m 87 821 l 203 821 q 233 746 233 821 l 233 175 q 274 78 233 78 l 356 78 q 397 175 397 78 l 397 746 q 428 821 397 821 l 544 821 q 579 746 580 821 l 580 211 q 469 0 580 0 l 162 0 q 51 211 52 0 l 51 746 q 87 821 52 821 z "},"Û":{"ha":631,"x_min":51,"x_max":580,"o":"m 431 899 q 315 969 393 922 q 199 899 237 922 q 161 885 182 888 q 140 927 140 882 q 156 975 140 972 q 189 986 172 978 q 315 1057 231 1010 q 441 986 399 1010 q 474 975 458 978 q 490 927 490 972 q 469 885 490 882 q 431 899 448 888 m 87 821 l 203 821 q 233 746 233 821 l 233 175 q 274 78 233 78 l 356 78 q 397 175 397 78 l 397 746 q 428 821 397 821 l 544 821 q 579 746 580 821 l 580 211 q 469 0 580 0 l 162 0 q 51 211 52 0 l 51 746 q 87 821 52 821 z "},"Ù":{"ha":631,"x_min":51,"x_max":580,"o":"m 402 890 l 214 1003 q 205 1058 184 1021 q 259 1078 229 1096 l 447 964 q 454 908 477 947 q 402 890 432 872 m 87 821 l 203 821 q 233 746 233 821 l 233 175 q 274 78 233 78 l 356 78 q 397 175 397 78 l 397 746 q 428 821 397 821 l 544 821 q 579 746 580 821 l 580 211 q 469 0 580 0 l 162 0 q 51 211 52 0 l 51 746 q 87 821 52 821 z "},"ı":{"ha":284,"x_min":51,"x_max":233,"o":"m 51 75 l 51 503 q 87 578 51 578 l 198 578 q 233 503 233 578 l 233 75 q 198 0 233 0 l 87 0 q 51 75 51 0 z "},"ˆ":{"ha":451,"x_min":51,"x_max":400,"o":"m 341 899 q 226 969 303 922 q 109 899 147 922 q 72 885 93 888 q 51 927 51 882 q 66 975 51 972 q 99 986 82 978 q 226 1057 142 1010 q 352 986 309 1010 q 385 975 369 978 q 400 927 400 972 q 379 885 400 882 q 341 899 359 888 z "},"˜":{"ha":491,"x_min":51,"x_max":440,"o":"m 309 975 q 376 980 347 969 q 419 1010 404 991 q 437 983 435 1028 q 420 919 440 937 q 373 891 399 901 q 312 887 347 882 q 236 911 276 892 q 182 926 208 923 q 116 921 144 932 q 72 891 87 909 q 54 919 56 873 q 71 982 51 964 q 118 1010 92 1000 q 180 1014 144 1019 q 255 989 216 1009 q 309 975 283 978 z "},"˘":{"ha":432,"x_min":51,"x_max":382,"o":"m 100 981 q 111 956 104 968 q 156 911 127 927 q 216 895 184 895 q 277 911 248 895 q 322 956 306 927 q 333 981 329 968 l 382 981 q 363 933 376 957 q 301 870 340 892 q 216 848 261 848 q 132 870 172 848 q 69 933 92 892 q 51 981 56 957 l 100 981 z "},"˙":{"ha":245,"x_min":51,"x_max":194,"o":"m 51 920 q 60 956 51 939 q 87 982 70 973 q 122 991 104 991 q 158 982 140 991 q 184 956 175 973 q 194 920 194 939 q 184 884 194 901 q 158 858 175 867 q 122 848 141 848 q 87 858 104 848 q 60 884 70 867 q 51 920 51 901 z "},"˚":{"ha":300,"x_min":51,"x_max":250,"o":"m 150 1019 q 199 1006 175 1019 q 236 970 222 994 q 250 920 250 946 q 236 870 250 894 q 200 834 223 847 q 150 821 176 821 q 101 834 124 821 q 64 870 77 847 q 51 920 51 894 q 64 970 51 946 q 101 1006 77 994 q 150 1019 125 1019 m 79 920 q 88 884 79 901 q 115 858 98 867 q 150 848 132 848 q 186 858 169 848 q 212 884 203 867 q 222 920 222 901 q 212 956 222 939 q 185 982 203 973 q 150 991 168 991 q 115 982 132 991 q 88 956 98 973 q 79 920 79 939 z "},"¸":{"ha":331,"x_min":51,"x_max":280,"o":"m 169 0 l 169 -41 q 216 -51 193 -43 q 263 -80 246 -61 q 280 -119 280 -99 q 268 -153 280 -137 q 267 -155 267 -154 q 263 -159 265 -157 q 260 -163 262 -161 q 213 -191 243 -181 q 152 -199 185 -200 q 94 -189 121 -198 q 51 -147 51 -176 q 150 -156 106 -161 q 193 -126 193 -151 q 122 -100 193 -102 q 51 -61 52 -98 l 51 0 l 169 0 z "},"ˇ":{"ha":451,"x_min":51,"x_max":400,"o":"m 341 1043 q 379 1057 358 1054 q 400 1015 400 1060 q 385 966 400 969 q 352 956 369 964 q 226 884 309 932 q 99 956 142 932 q 66 966 82 964 q 51 1015 51 969 q 72 1057 51 1060 q 109 1043 92 1054 q 226 972 147 1019 q 341 1043 303 1019 z "},"Š":{"ha":631,"x_min":51,"x_max":580,"o":"m 549 582 l 433 582 q 397 656 397 582 l 397 681 q 358 743 397 743 l 274 743 q 233 681 233 743 l 233 448 q 278 386 233 386 l 494 386 q 580 257 580 386 l 580 119 q 494 0 580 0 l 81 0 q 51 29 51 0 l 51 52 q 81 78 51 78 l 367 78 q 397 130 397 78 l 397 164 q 367 211 397 211 l 108 211 q 51 298 51 211 l 51 707 q 151 821 51 821 l 471 821 q 580 700 580 821 l 580 656 q 549 582 580 582 m 431 1043 q 469 1057 448 1054 q 490 1015 490 1060 q 474 966 490 969 q 441 956 458 964 q 315 884 399 932 q 189 956 231 932 q 156 966 172 964 q 140 1015 140 969 q 161 1057 140 1060 q 199 1043 182 1054 q 315 972 237 1019 q 431 1043 393 1019 z "},"š":{"ha":631,"x_min":85,"x_max":614,"o":"m 465 1043 q 503 1057 481 1054 q 524 1015 524 1060 q 508 966 524 969 q 475 956 492 964 q 349 884 433 932 q 222 956 265 932 q 190 966 205 964 q 174 1015 174 969 q 195 1057 174 1060 q 233 1043 216 1054 q 349 972 271 1019 q 465 1043 427 1019 m 583 441 l 467 441 q 431 515 431 441 l 431 540 q 392 602 431 602 l 308 602 q 267 540 267 602 l 267 448 q 312 386 267 386 l 528 386 q 614 257 614 386 l 614 119 q 528 0 614 0 l 115 0 q 85 29 85 0 l 85 52 q 115 78 85 78 l 401 78 q 431 130 431 78 l 431 164 q 401 211 431 211 l 142 211 q 85 298 85 211 l 85 566 q 185 680 85 680 l 505 680 q 614 559 614 680 l 614 515 q 583 441 614 441 z "},"Ž":{"ha":630,"x_min":51,"x_max":579,"o":"m 525 821 q 551 814 538 821 q 572 794 564 807 q 579 767 579 781 q 576 748 579 757 q 556 703 571 729 l 236 78 l 549 78 q 579 57 579 78 l 579 18 q 549 0 579 0 l 109 0 l 105 0 q 78 7 91 0 q 58 27 65 14 q 51 54 51 39 q 58 79 51 67 q 78 124 64 98 l 376 707 q 348 743 382 743 l 81 743 q 51 762 51 743 l 51 802 q 81 821 51 821 l 524 821 l 525 821 m 431 1043 q 469 1057 448 1054 q 490 1015 490 1060 q 474 966 490 969 q 441 956 458 964 q 315 884 399 932 q 189 956 231 932 q 156 966 172 964 q 140 1015 140 969 q 161 1057 140 1060 q 199 1043 182 1054 q 315 972 237 1019 q 431 1043 393 1019 z "},"ž":{"ha":630,"x_min":51,"x_max":617,"o":"m 465 1043 q 503 1057 481 1054 q 524 1015 524 1060 q 508 966 524 969 q 475 956 492 964 q 349 884 433 932 q 222 956 265 932 q 190 966 205 964 q 174 1015 174 969 q 195 1057 174 1060 q 233 1043 216 1054 q 349 972 271 1019 q 465 1043 427 1019 m 563 680 q 589 673 576 680 q 610 653 602 666 q 617 626 617 640 q 614 607 617 616 q 594 562 609 588 l 274 78 l 587 78 q 617 57 617 78 l 617 18 q 587 0 617 0 l 109 0 l 105 0 q 78 7 91 0 q 58 27 65 14 q 51 54 51 39 q 58 79 51 67 q 78 124 64 98 l 376 566 q 348 602 382 602 l 81 602 q 51 621 51 602 l 51 661 q 81 680 51 680 l 562 680 l 563 680 z "},"¦":{"ha":121,"x_min":17,"x_max":104,"o":"m 60 -53 q 17 -36 17 -53 l 17 435 q 60 452 17 452 q 104 435 104 452 l 104 -36 q 60 -53 104 -53 m 60 544 q 17 560 17 544 l 17 1032 q 60 1049 17 1049 q 104 1032 104 1049 l 104 560 q 60 544 104 544 z "},"Ð":{"ha":786,"x_min":51,"x_max":735,"o":"m 241 821 l 631 821 q 735 662 735 821 l 735 158 q 631 0 735 0 l 241 0 q 207 74 207 0 l 207 249 l 86 249 q 51 286 51 249 l 51 325 q 86 362 51 362 l 207 362 l 207 746 q 241 821 207 821 m 481 249 l 389 249 l 389 123 q 416 79 389 79 l 516 79 q 553 204 553 79 l 553 616 q 516 743 553 743 l 416 743 q 389 700 389 743 l 389 362 l 481 362 q 511 325 511 362 l 511 286 q 481 249 511 249 z "},"Ý":{"ha":631,"x_min":51,"x_max":580,"o":"m 87 821 l 203 821 q 233 746 233 821 l 233 434 q 274 386 233 386 l 357 386 q 397 434 397 386 l 397 746 q 428 821 397 821 l 544 821 q 580 746 580 821 l 580 182 q 398 0 580 0 l 82 0 q 51 29 51 0 l 51 52 q 82 78 51 78 l 371 78 q 397 103 397 78 l 397 160 q 371 211 397 211 l 148 211 q 51 299 51 211 l 51 746 q 87 821 51 821 m 207 908 q 214 964 184 947 l 401 1078 q 455 1058 432 1096 q 446 1003 477 1021 l 258 890 q 207 908 229 872 z "},"ý":{"ha":631,"x_min":51,"x_max":580,"o":"m 87 680 l 203 680 q 233 606 233 680 l 233 434 q 274 386 233 386 l 357 386 q 397 434 397 386 l 397 606 q 428 680 397 680 l 544 680 q 580 606 580 680 l 580 182 q 398 0 580 0 l 82 0 q 51 29 51 0 l 51 52 q 82 78 51 78 l 371 78 q 397 103 397 78 l 397 160 q 371 211 397 211 l 148 211 q 51 299 51 211 l 51 606 q 87 680 51 680 m 207 908 q 214 964 184 947 l 401 1078 q 455 1058 432 1096 q 446 1003 477 1021 l 258 890 q 207 908 229 872 z "},"Þ":{"ha":631,"x_min":51,"x_max":580,"o":"m 87 821 l 198 821 q 233 746 233 821 l 233 678 l 475 678 q 580 519 580 678 l 580 243 q 475 156 580 156 l 267 156 q 233 121 233 156 l 233 74 l 233 67 q 203 0 232 0 l 87 0 l 86 0 q 62 15 71 0 q 57 25 59 19 l 56 31 q 51 74 51 47 l 51 746 q 55 789 51 772 q 87 821 63 821 m 397 292 l 397 554 q 358 601 397 601 l 271 601 q 233 549 233 601 l 233 292 q 273 243 233 243 l 358 243 q 397 292 397 243 z "},"þ":{"ha":631,"x_min":51,"x_max":580,"o":"m 51 75 l 51 603 l 51 610 l 51 746 q 87 821 51 821 l 198 821 q 233 746 233 821 l 233 677 l 475 677 q 580 519 580 677 l 580 378 q 475 291 580 291 l 267 291 q 233 259 235 291 l 233 74 q 203 0 233 0 l 87 0 q 51 75 51 0 m 397 427 l 397 553 q 358 600 397 600 l 271 600 q 233 553 235 600 l 233 422 q 273 378 235 378 l 358 378 q 397 427 397 378 z "}}}
